<svg xmlns:xlink="http://www.w3.org/1999/xlink" xmlns="http://www.w3.org/2000/svg" version="1.1" viewBox="0 0 1024 1024" height="1024px" width="1024px">
    <title>KO</title>
    <defs>
        <linearGradient id="linearGradient-1" y2="94.9598849%" x2="50%" y1="0.455533649%" x1="50%">
            <stop offset="0%" stop-color="#9ED7FC"></stop>
            <stop offset="100%" stop-color="#DDEBF8"></stop>
        </linearGradient>
        <linearGradient id="linearGradient-2" y2="94.9598849%" x2="50%" y1="0.455533649%" x1="50%">
            <stop offset="0%" stop-color="#9ED7FC"></stop>
            <stop offset="100%" stop-color="#DDEBF8"></stop>
        </linearGradient>
        <linearGradient id="linearGradient-3" y2="94.9598849%" x2="50%" y1="0.455533649%" x1="50%">
            <stop offset="0%" stop-color="#9ED7FC"></stop>
            <stop offset="100%" stop-color="#DDEBF8"></stop>
        </linearGradient>
        <linearGradient id="linearGradient-4" y2="94.9598849%" x2="50%" y1="0.455533649%" x1="50%">
            <stop offset="0%" stop-color="#9ED7FC"></stop>
            <stop offset="100%" stop-color="#DDEBF8"></stop>
        </linearGradient>
    </defs>
    <g fill-rule="evenodd" fill="none" stroke-width="1" stroke="none" id="KO">
        <g fill-rule="nonzero" transform="translate(82.000000, 90.000000)">
            <g transform="translate(594.000000, 173.000000)" id="病毒">
                <path fill="#64BEF8" id="形状结合" d="M135,5 C145.958904,5 155,8.27272727 155,12.3636364 C155,15.531012 150.236533,18.1236223 143.433766,19.3070723 L140.570193,51.2217033 C146.912,51.68652 153.058504,52.8735345 158.927446,54.7004894 L162.908868,41.8910784 C157.320796,38.3451059 154.075436,34.316796 155.233247,31.6478604 C156.58634,27.904953 166.05799,28.1723035 176.341495,32.1825615 C186.354381,36.1928194 193.390464,42.6092322 191.766753,46.3521396 C190.805264,49.0117954 185.744459,49.6465445 179.205961,48.3523117 L172.810349,60.4669721 C178.587472,63.5136721 183.962934,67.2260603 188.833523,71.5009261 L209.352806,47.9962992 C205.292092,42.2389153 203.821159,37.0146214 206.017735,35.0177347 C208.7359,32.0277534 217.434027,35.8331841 225.316705,43.7158621 C232.927566,51.5985401 237.004814,60.0248511 234.014832,63.0148324 C231.973121,65.0565437 227.269785,63.8029102 222.068506,60.3790463 L197.754141,80.6302588 C201.44936,85.042286 204.693189,89.8441669 207.41341,94.9636832 L218.744663,89.0919801 C217.303126,82.5737796 217.954511,77.4060625 220.698819,76.2422564 C224.554274,74.6072346 231.163627,81.4198255 235.569862,91.50246 C239.700707,101.857598 240.251486,111.395225 236.396031,112.757744 C233.623357,113.933579 229.426409,110.740435 225.648883,105.104039 L213.228951,108.847036 C215.209487,115.145119 216.4525,121.764832 216.855965,128.604153 L247.690885,126.499222 C248.873393,119.73651 251.467165,115 254.636364,115 C258.727273,115 262,123.979592 262,134.863946 C262,146.020408 258.727273,155 254.636364,155 C251.616385,155 249.118922,150.699021 247.867217,144.352075 L216.613465,141.506082 C216.032787,147.490535 214.808241,153.291245 213.010297,158.837742 L225.274793,162.649723 C228.779928,157.220865 232.724733,154.093452 235.35214,155.233247 C239.095047,156.58634 238.827697,166.05799 234.817439,176.341495 C230.807181,186.354381 224.390768,193.390464 220.64786,191.766753 C217.943584,190.59361 217.332727,185.323718 218.714456,178.712872 L207.116253,172.590465 C204.029709,178.29403 200.290648,183.596505 196.000294,188.396665 L219.606972,209.005102 C225.040175,205.288206 229.869024,203.956246 231.982265,205.869274 C234.972247,208.846647 231.166816,217.508097 223.284138,225.357536 C215.40146,232.936305 206.975149,236.99636 203.985168,234.018987 C201.854172,231.896977 203.313035,226.887692 207.082488,221.44089 L186.827105,197.204722 C182.220801,200.996754 177.198771,204.300601 171.841452,207.035825 L177.916325,218.760267 C184.428243,217.300626 189.599144,217.942765 190.759734,220.686684 C192.383135,224.524804 185.618963,231.104439 175.337421,235.490862 C165.326446,239.877285 155.856604,240.151436 154.233203,236.313316 C153.075132,233.575351 156.323049,229.442273 161.914321,225.705477 L157.96105,212.593802 C152.412533,214.246048 146.622449,215.32817 140.659243,215.771721 L143.433766,246.692928 C150.236533,247.876378 155,250.468988 155,253.636364 C155,257.727273 145.958904,261 135,261 C124.041096,261 115,257.727273 115,253.636364 C115,250.651704 119.22974,248.177409 125.409827,246.911644 L127.508639,215.705594 C120.939351,215.150077 114.585205,213.81923 108.538465,211.805317 L104.350277,225.274793 C109.779135,228.779928 112.906548,232.724733 111.766753,235.35214 C110.41366,239.095047 100.94201,238.827697 90.6585052,234.817439 C80.6456186,230.807181 73.6095361,224.390768 75.2332474,220.64786 C76.2179442,217.924005 81.5022477,217.323992 88.2700701,218.74478 L95.0413128,205.915774 C89.6713963,202.97441 84.6611336,199.453052 80.0957783,195.436952 L58.1200014,220.608732 C61.8192611,225.990381 63.0913537,230.918791 60.9822653,233.018987 C58.2641005,235.99636 49.5659731,231.936305 41.6832951,224.357536 C34.0724335,216.508097 29.9951863,207.846647 32.9851676,204.869274 C35.0977984,202.956799 40.0601701,204.287437 45.4752098,208.001882 L71.3291774,186.469065 C67.4039193,181.797164 63.9855289,176.686358 61.1600946,171.222736 L48.255779,177.910017 C49.6967409,184.427276 49.0452083,189.594056 46.3011811,190.757744 C42.4457256,192.392765 35.8363732,185.580174 31.4301383,175.49754 C27.2992931,165.414905 26.7485137,155.877278 30.6039693,154.242256 C33.4107422,153.05196 37.6770377,156.338767 41.4902965,162.105023 L55.6595691,157.7956 C54.0326822,152.53808 52.919112,147.058626 52.3778675,141.416247 L19.1143576,144.444903 C17.8566762,150.740921 15.3688689,155 12.3636364,155 C8.27272727,155 5,146.020408 5,134.863946 C5,123.979592 8.27272727,115 12.3636364,115 C15.522069,115 18.1089774,119.704384 19.2970143,126.43037 L52.1400546,128.672107 C52.547736,121.663217 53.8370925,114.884506 55.8983913,108.445706 L41.8910784,104.091132 C38.3451059,109.679204 34.316796,112.924564 31.6478604,111.766753 C27.904953,110.41366 28.1723035,100.94201 32.1825615,90.6585052 C36.1928194,80.6456186 42.6092322,73.6095361 46.3521396,75.2332474 C49.0116596,76.1946865 49.6464797,81.2550241 48.3525099,87.7930379 L61.6631603,94.8199184 C64.2560524,89.9632163 67.3206609,85.3936511 70.7951128,81.1730958 L45.4406336,59.9827831 C40.0397767,63.7088976 35.0876285,65.0458309 32.9810135,63.1307263 C30.00364,60.1533529 34.0636947,51.4919027 41.6424636,43.6424636 C49.4919027,36.0636947 58.1533529,32.00364 61.1307263,34.9810135 C63.0322589,37.0726993 61.7276834,41.9697298 58.0616416,47.3258776 L79.6024493,72.0004979 C84.4522166,67.6656807 89.8147538,63.8936185 95.5856622,60.7887103 L89.081678,48.2367487 C82.5707,49.702401 77.4007371,49.0572118 76.2402662,46.3011811 C74.6168648,42.4457256 81.3810372,35.8363732 91.6625792,31.4301383 C101.673554,27.2992931 111.143396,26.7485137 112.766797,30.6039693 C113.925418,33.3556057 110.673868,37.5099861 105.077719,41.2650627 L109.209302,54.974469 C115.075245,53.0768947 121.225157,51.8205595 127.575742,51.2887592 L125.409827,19.0883563 C119.22974,17.8225911 115,15.3482964 115,12.3636364 C115,8.27272727 124.041096,5 135,5 Z"></path>
                <path fill="#000000" id="形状结合备份" d="M208.711408,178.652016 L212.885542,180.871325 L212.829935,181.39549 C212.164498,188.121992 213.650247,193.346935 218.262347,195.324164 C223.381468,197.518755 228.870895,193.984167 233.426894,187.514266 L234.138315,186.468717 C235.896526,183.795897 237.4986,180.688618 238.86435,177.318721 L239.13388,176.624718 C243.812342,164.380398 244.061674,153.052003 237.013413,150.115888 L236.436172,149.889705 C231.852063,148.212056 227.217967,150.936018 223.06618,156.153761 L222.821923,156.466038 L218.763935,155.195151 L218.879867,154.768883 C219.6051,151.953448 220.189206,149.098187 220.629002,146.211403 L220.700487,145.687213 L243.277784,147.716838 L243.396004,148.140288 C245.315011,154.812585 248.740707,159.166666 253.953447,159.166666 C261.191553,159.166666 265.212827,149.969823 265.895452,138.10366 L265.962344,136.637763 C265.987439,135.898588 266,135.150406 266,134.394714 C266,121.031683 261.903239,109.893436 253.953447,109.893436 L253.459387,109.906718 C248.573091,110.171675 245.313321,114.380583 243.442642,120.708658 L243.32519,121.118323 L220.999147,122.623944 L220.949646,122.184486 C220.520924,118.752996 219.88932,115.36197 219.059853,112.024994 L218.965412,111.667291 L223.54013,110.280222 L223.907085,110.732671 C228.103906,115.795767 232.717072,118.388541 237.239471,116.737495 L237.418409,116.665335 C243.234455,114.587531 244.307759,107.282711 242.220886,98.1948656 L241.901435,96.8848443 C241.844667,96.6646099 241.78615,96.4434576 241.725906,96.2214339 L241.343883,94.8792081 C241.276815,94.6538851 241.208062,94.4277837 241.137646,94.2009504 L240.695359,92.8315403 C240.541391,92.3723907 240.38094,91.9106854 240.214178,91.4467965 L239.695128,90.0489502 C239.605521,89.8150079 239.514379,89.5806126 239.421722,89.3458109 C234.050458,76.9147121 225.875545,68.4227402 218.532936,71.5705508 L218.09537,71.772487 C213.817216,73.8927823 212.454944,79.0225142 213.150909,85.4906561 L213.198424,85.9105007 L209.09066,88.051565 L208.844774,87.6392868 C207.343095,85.1849137 205.721026,82.805529 203.985228,80.5099351 L203.747959,80.203367 L221.359436,65.5146702 L221.794392,65.755767 C227.747736,68.9921551 233.137554,69.6237806 236.740794,66.0194207 C241.464691,61.2940547 238.940913,53.3184811 232.470011,45.0946502 L231.584123,43.9969318 C230.523975,42.7151589 229.371866,41.4306072 228.140219,40.1545763 L227.613499,39.6336926 C218.284975,30.5151716 207.769131,25.870913 202.313523,31.2800292 L202.174066,31.4236157 L201.983296,31.6099708 C198.543254,35.100198 199.20186,40.4293485 202.379831,46.3048777 L202.553317,46.6197186 L187.508897,63.8810121 L187.173618,63.6196765 C184.452833,61.5423581 181.613139,59.6256963 178.669358,57.8808323 L178.378425,57.7115223 L180.824595,53.1093011 L181.264909,53.1608042 C188.059844,53.8894423 193.287466,52.4925238 195.200957,47.9176647 L195.26346,47.7524938 C197.688307,42.0927592 193.116526,35.9805155 185.319213,31.176607 L184.183776,30.4994248 C182.063407,29.2749383 179.734103,28.1459474 177.263613,27.144086 L176.569826,26.8744726 L175.864712,26.6094133 L174.461854,26.1092774 C163.05052,22.1900743 152.835099,22.351903 150.069234,28.9955988 L149.843121,29.5730192 C148.165994,34.1585525 150.88911,38.7940893 156.105231,42.9471673 L156.417411,43.1887995 L154.853,48.1869872 L154.396775,48.0737421 C151.60399,47.4131266 148.774542,46.8907269 145.916319,46.5094481 L145.537642,46.4608578 L147.675671,22.6649319 L148.144433,22.5308935 C154.618669,20.5909421 158.84661,17.1849851 158.84661,12.0502978 C158.84661,6.15973222 152.736989,2.38397008 144.139426,0.822103993 L142.831585,0.604440688 C140.843192,0.302889219 138.738014,0.113667067 136.557305,0.0379029571 L135.092762,0.00421453632 C134.846957,0 134.600333,0 134.352947,0 L133.613132,0.00421453632 L132.148588,0.0379029571 C129.967879,0.113667067 127.862702,0.302889219 125.874309,0.604440688 L124.566467,0.822103993 C115.968905,2.38397008 109.859283,6.15973222 109.859283,12.0502978 L109.872257,12.5388489 C110.131069,17.3711546 114.242649,20.6099437 120.441485,22.4937912 L120.803354,22.5985423 L122.417542,46.5604422 L122.064726,46.6092552 C119.414931,46.9854982 116.790839,47.4831905 114.198823,48.0999015 L112.111391,48.6232616 L110.264912,42.5343878 L110.678364,42.2105552 C116.103147,37.837951 118.819845,33.049253 116.792544,28.3174114 C114.022423,21.851788 104.554803,21.5250018 93.7432974,25.0633761 L92.3562172,25.5359051 C91.8916987,25.7002969 91.4251592,25.8715124 90.9570113,26.0493764 L89.5481548,26.6027391 C88.8504681,26.8965677 88.1649657,27.19936 87.4929906,27.5104816 L86.1674746,28.1436423 C75.4962232,33.4020803 68.6725888,40.7697231 71.5483079,47.4818204 L71.7501814,47.9195231 C73.8698177,52.1990061 78.9979553,53.5617017 85.4640871,52.8655207 L85.8838012,52.81529 L88.8846262,58.5793291 L88.413458,58.8668396 C85.4600837,60.7051527 82.6178893,62.7184664 79.9023595,64.8947367 L79.5953425,65.1447853 L63.3562808,46.5177632 L63.5910895,46.0880413 C66.6097281,40.3892464 67.2135167,35.144128 63.9898389,31.59698 C59.2470151,26.8464967 51.270436,29.1756506 43.1929924,35.306332 L42.0911919,36.1655893 L40.9899063,37.0701258 C39.8894666,37.9966862 38.7924474,38.9883947 37.7067927,40.036939 C35.7611032,42.0518879 34.0112657,44.1001646 32.5061108,46.1324808 L31.7096767,47.2391377 C26.4372064,54.7864284 24.6873466,61.9874869 28.9886167,66.2900942 L29.361846,66.6122199 C33.1467251,69.7035713 38.4961138,68.9142139 44.2323612,65.7263846 L44.6070503,65.5122991 L63.8824918,81.6425985 L63.5131548,82.1458479 C62.1334107,84.0610646 60.8314294,86.0310468 59.6108191,88.0509216 L59.3338479,88.5162921 L53.0927956,85.1991837 L53.1442827,84.7614337 C53.8726944,77.9643861 52.47621,72.7351387 47.9027727,70.8210532 L47.7376532,70.7585304 C42.0796775,68.3329298 35.9693333,72.9061324 31.1669179,80.7058689 L30.4899461,81.8416589 C29.2658401,83.9626872 28.1372001,86.292715 27.1356501,88.763973 L26.8661205,89.4579757 L26.6011435,90.1633094 L26.1011631,91.5666036 C22.183178,102.981485 22.3449564,113.200082 28.9865875,115.966806 L29.5638284,116.192989 C34.1479366,117.870638 38.7820327,115.146676 42.9338201,109.928933 L43.1753771,109.613955 L49.7364226,111.669662 L49.6259851,112.105844 C48.7939546,115.466956 48.1626086,118.882709 47.7370532,122.339244 L47.6837256,122.804144 L22.6721099,121.118323 L22.5573577,120.708658 C20.6243232,114.169647 17.208048,109.893436 12.0465527,109.893436 C6.15781788,109.893436 2.38322918,116.004957 0.821848498,124.605193 L0.604252838,125.91344 C0.302795086,127.902452 0.113631741,130.008284 0.0378911775,132.189671 L0.00421322652,133.654669 C0,133.90055 0,134.147251 0,134.394714 L0.00418606817,135.147847 L0.037655976,136.637763 C0.464265284,149.203739 4.51301403,159.166666 12.0465527,159.166666 L12.5300202,159.153972 C17.4719278,158.892272 20.7449578,154.604075 22.6039961,148.140288 L22.7195163,147.716838 L47.968164,145.445366 L48.076804,146.210831 C48.445726,148.632514 48.9162249,151.032145 49.4864615,153.404845 L49.6629427,154.113949 L42.6159816,156.26924 L42.3001744,155.870802 C37.9098346,150.46983 33.0472527,147.763711 28.3086108,149.795189 C21.8449969,152.56617 21.5183122,162.036734 25.0555868,172.851601 L25.5279689,174.239112 C25.6923096,174.703775 25.863472,175.170459 26.0412807,175.638753 L26.5944714,177.048047 C26.7928073,177.506959 26.9950114,177.960522 27.200898,178.408345 L27.8294198,179.734194 C33.1560732,190.632858 40.6683519,197.697456 47.4670638,194.782817 L47.9046305,194.58088 C52.1827836,192.460585 53.5450556,187.330853 52.849091,180.862711 L52.7988759,180.442164 L59.0968159,177.160621 L59.526023,177.891153 C60.8089134,180.023115 62.1823366,182.099739 63.6420626,184.115312 L64.1645599,184.819135 L44.5359407,201.188911 L44.0154611,200.903605 C38.2777019,197.834696 32.9895568,197.205084 29.4224452,200.448921 C25.1051662,204.761919 26.6370087,211.748274 31.5558456,219.053465 L32.3187659,220.15134 C32.843904,220.884459 33.401681,221.619589 33.9896347,222.354376 L34.8938901,223.456004 C35.8201626,224.556786 36.8115628,225.654146 37.8597812,226.740138 C38.2211875,227.089338 38.5836965,227.432342 38.9470106,227.768852 L40.0390707,228.758602 C41.3152646,229.889886 42.5976767,230.937971 43.8735504,231.890086 L44.9652577,232.682385 C52.4102497,237.931755 59.5059028,239.763638 63.6889941,235.612213 L64.3144436,234.954622 C67.3255316,231.582195 66.7871743,226.497552 63.9229375,220.963294 L63.4202794,220.03407 L79.8726699,201.160458 L80.335618,201.532943 C82.6868109,203.393052 85.1314629,205.131755 87.6596754,206.741331 L88.2778243,207.123666 L85.1727052,212.970692 L84.7350913,212.92189 C77.9401561,212.193252 72.7125339,213.59017 70.7990432,218.165029 L70.7365398,218.3302 C68.5426309,223.450912 72.0761204,228.942046 78.5440105,233.499462 L79.5892347,234.211104 C82.2612233,235.969861 85.3675367,237.572433 88.7363867,238.938608 L89.4301737,239.208221 C101.670688,243.888138 112.995563,244.137548 115.930766,237.087095 L116.156879,236.509675 C117.778101,232.076993 115.287542,227.597585 110.408,223.552423 L109.58226,222.891194 L111.348148,217.248078 L111.667744,217.340027 C114.995499,218.238849 118.380725,218.939562 121.809549,219.436819 L122.344062,219.507696 L120.803354,242.397878 L120.441485,242.506209 C114.036021,244.452851 109.859283,247.84627 109.859283,252.949702 C109.859283,259.429324 117.251925,263.350034 127.216753,264.57994 L128.591083,264.730963 C130.443575,264.910057 132.373854,265 134.352947,265 C136.33204,265 138.262319,264.910057 140.11481,264.730963 L141.489141,264.57994 C151.453968,263.350034 158.84661,259.429324 158.84661,252.949702 L158.833478,252.458185 C158.571503,247.596801 154.409823,244.346479 148.144433,242.469106 L147.675671,242.331488 L145.634825,219.604909 L146.263175,219.526264 C148.656881,219.197118 151.030215,218.768905 153.378543,218.243314 L154.077905,218.077948 L155.732388,223.545605 L155.321853,223.871961 C149.896923,228.244611 147.180128,233.03338 149.207456,237.765283 C152.301746,244.987537 163.950009,244.710856 175.87702,239.72506 L176.552375,239.437834 C178.39798,238.660531 180.159147,237.818562 181.810083,236.924095 L183.027214,236.243592 C191.795362,231.183839 197.03397,224.628063 194.451692,218.600874 L194.24982,218.163173 C192.130195,213.88371 187.0021,212.521008 180.536015,213.217163 L180.113499,213.264703 L177.75266,208.731243 L178.100184,208.536332 C180.59461,207.083154 183.016035,205.506998 185.355529,203.814408 L185.764341,203.510175 L200.768466,221.449591 L200.535385,221.87665 C197.306323,227.840718 196.672375,233.213961 200.271686,236.814392 C204.995584,241.539758 212.968679,239.015195 221.189954,232.542281 L222.287331,231.656118 C223.019545,231.050131 223.752666,230.414106 224.484587,229.750363 L225.581303,228.734248 C225.763852,228.561528 225.946259,228.387147 226.128492,228.211143 C235.717794,218.619892 240.558711,207.671806 234.846668,201.957988 L234.466849,201.630091 C230.746543,198.590247 225.623695,199.299322 220.007372,202.363434 L219.619621,202.57835 L202.420579,187.574303 L202.612575,187.340887 C204.735113,184.677453 206.701363,181.893018 208.500056,179.002104 L208.711408,178.652016 Z M134.855485,5 C145.699367,5 154.64557,8.25423729 154.64557,12.3220339 C154.64557,15.3802008 150.201456,17.8995096 143.781073,19.120373 L140.911103,51.0507214 C146.999373,51.4950137 152.90819,52.603637 158.565116,54.3041309 L162.526239,41.6439779 C156.977117,38.0596307 153.762318,33.9994533 154.916667,31.3050847 C156.272152,27.5084746 165.760549,27.779661 176.062236,31.8474576 C186.092827,35.9152542 193.14135,42.4237288 191.514768,46.220339 C190.54602,48.9337273 185.423163,49.569376 178.818196,48.2262807 L172.577911,59.9703637 C178.372951,62.9596961 183.772984,66.6144454 188.675948,70.832516 L209.061751,47.4450031 C205.455774,42.1261817 204.129227,37.3523277 205.953965,35.3038004 L206.154008,35.1016949 C207.901078,33.1792844 212.125105,34.0725256 217.012155,37.0556062 L218.032135,37.7023766 C219.57451,38.7165469 221.168694,39.9271768 222.760469,41.3125712 L223.8207,42.2618205 C224.350042,42.7491525 224.877778,43.2553672 225.401899,43.779661 C227.299578,45.7457627 228.976991,47.7457627 230.379071,49.6864407 L231.116205,50.7385488 C234.780232,56.1382547 236.178006,60.9322034 234.077004,63.0338983 C231.970122,65.1414751 227.021466,63.7295044 221.621228,60.0412967 L197.753633,79.948163 C201.636862,84.5001882 205.036794,89.4762285 207.872647,94.7954754 L219.104473,88.9424837 C217.732772,82.5347365 218.386063,77.4702478 221.064346,76.3220339 C224.859705,74.6949153 231.366034,81.4745763 235.703586,91.5084746 C236.245781,92.8824859 236.725321,94.2420339 237.14028,95.5697627 L237.533641,96.8862423 C237.719486,97.5385361 237.889026,98.1814288 238.042018,98.8127508 L238.325869,100.059325 C239.721312,106.618581 239.215799,111.696798 236.516878,112.661017 C233.815798,113.819004 229.741646,110.71906 226.053358,105.218454 L213.794008,108.932632 C215.713751,115.068612 216.935728,121.508207 217.366267,128.157711 L247.859436,126.101754 C249.070338,119.608257 251.602324,115.101695 254.68038,115.101695 C257.843179,115.101695 260.513987,120.51538 261.544825,128.025273 L261.705261,129.332598 C261.897184,131.101427 262,132.969868 262,134.898305 C262,137.557111 261.813973,140.091859 261.475283,142.40984 L261.275603,143.652139 C260.096299,150.360418 257.59762,154.966102 254.68038,154.966102 C251.595386,154.966102 249.058927,150.439202 247.851269,143.824541 L217.199658,141.068937 C216.640464,147.22307 215.402582,153.186102 213.561844,158.882176 L225.368101,162.578183 C228.951267,157.027232 233.010106,153.811372 235.703586,154.966102 C239.498945,156.322034 239.227848,165.813559 235.161392,176.118644 C231.094937,186.152542 224.588608,193.20339 220.793249,191.576271 C218.101468,190.42227 217.455142,185.31242 218.757557,178.858835 L207.545482,172.896819 C204.44707,178.593538 200.698803,183.889115 196.401398,188.682802 L219.814716,209.106139 C225.242529,205.370606 230.068816,204.029875 232.179325,205.949153 C234.697515,208.468173 232.382815,215.048161 226.867667,221.76996 L225.970496,222.831903 C225.201086,223.716886 224.377754,224.600753 223.504219,225.474576 C221.896121,227.027735 220.265338,228.433394 218.662911,229.661383 L217.599387,230.45339 C211.779272,234.661017 206.49288,236.389831 204.256329,234.152542 C202.223101,232.118644 203.466563,227.437316 206.869661,222.257446 L207.241448,221.702181 L187.076227,197.594053 C182.430988,201.392482 177.367655,204.69694 171.967643,207.425984 L178.085304,219.175049 C184.490884,217.802929 189.553648,218.456444 190.701477,221.135593 C192.147328,224.510358 186.952974,230.02783 178.545619,234.259678 L177.260847,234.884384 C176.824842,235.08912 176.381234,235.290213 175.93045,235.487235 L175.248945,235.779661 C165.218354,240.118644 155.729958,240.389831 154.103376,236.59322 C152.942461,233.883528 156.200536,229.792446 161.807856,226.094624 L157.841305,212.994562 C152.435064,214.565495 146.803282,215.597108 141.008476,216.026861 L143.781073,246.879627 C150.201456,248.10049 154.64557,250.619799 154.64557,253.677966 C154.64557,257.745763 145.699367,261 134.855485,261 C124.011603,261 115.065401,257.745763 115.065401,253.677966 C115.065401,250.642758 119.443039,248.138347 125.785635,246.907342 L127.871352,215.961007 C121.223281,215.400502 114.794909,214.047483 108.681411,211.997155 L104.473761,225.440768 C110.022883,229.025115 113.237682,233.085293 112.083333,235.779661 C110.727848,239.576271 101.239451,239.305085 90.9377637,235.237288 C80.907173,231.169492 73.8586498,224.661017 75.4852321,220.864407 C76.4539799,218.151018 81.5768371,217.51537 88.1818041,218.858465 L95.0204292,205.985523 C89.5271523,202.947134 84.4128083,199.301634 79.7689121,195.140568 L57.9002496,220.230242 C61.6597833,225.673604 62.9667098,230.675193 60.8459916,232.79661 C58.1350211,235.779661 49.4599156,231.711864 41.5981013,224.118644 C34.007384,216.254237 29.9409283,207.576271 32.9229958,204.59322 C35.0171895,202.68878 39.9190325,203.99414 45.2812553,207.664004 L71.1077886,186.124615 C67.3640013,181.592757 64.0921909,176.657585 61.3689011,171.395668 L47.8955272,178.413448 C49.2672278,184.821196 48.6139367,189.885684 45.935654,191.033898 C42.1402954,192.661017 35.6339662,185.881356 31.2964135,175.847458 C27.2299578,165.813559 26.6877637,156.322034 30.4831224,154.694915 C33.2190143,153.522003 37.3636014,156.717487 41.0890543,162.351353 L55.8213335,157.844336 C54.1377243,152.387887 53.0053083,146.693371 52.4896313,140.826357 L19.148731,143.824541 C17.9410729,150.439202 15.4046137,154.966102 12.3196203,154.966102 C8.25316456,154.966102 5,146.016949 5,134.898305 C5,124.050847 8.25316456,115.101695 12.3196203,115.101695 C15.3976762,115.101695 17.9296622,119.608257 19.1405635,126.101754 L52.333093,128.34015 C52.7519902,121.641428 53.9740287,115.154622 55.9036059,108.975366 L41.6318985,104.506562 C38.0487329,110.057514 33.9898938,113.273373 31.2964135,112.118644 C27.5010549,110.762712 27.7721519,101.271186 31.8386076,90.9661017 C35.9050633,80.9322034 42.4113924,73.8813559 46.2067511,75.5084746 C48.9192449,76.4775418 49.5546841,81.6020883 48.2120315,88.2092333 L61.5670997,95.3085433 C64.1752198,90.3326206 67.2751554,85.6523178 70.8015902,81.3329728 L45.3292294,60.0135143 C39.8431688,63.8512092 34.7875617,65.2472367 32.6518987,63.3050847 C30.1337084,60.786064 32.6417242,54.2060766 38.0537703,47.4842776 L38.9321277,46.4223338 C39.0824397,46.2453372 39.2346854,46.0683853 39.3888262,45.8915494 L40.3361025,44.8324983 C40.6592353,44.4803264 40.989639,44.1291902 41.3270042,43.779661 C49.1888186,36.1864407 57.8639241,32.1186441 60.8459916,35.1016949 C62.7360185,37.1814101 61.4636043,42.0291737 57.8555424,47.3475805 L79.502957,72.1835095 C84.3834847,67.7725975 89.7896323,63.93363 95.6139234,60.7741189 L88.9148128,47.909672 C82.5091778,49.2818249 77.4463586,48.6283184 76.2985232,45.9491525 C74.6719409,42.1525424 81.4493671,35.6440678 91.7510549,31.3050847 C101.781646,27.2372881 111.270042,26.6949153 112.896624,30.4915254 C114.05752,33.2011739 110.799571,37.2921663 105.192419,40.9899403 L109.393333,54.8524476 C115.316021,52.9262339 121.52847,51.652753 127.945164,51.1175492 L125.785635,19.0926578 C119.443039,17.861653 115.065401,15.3572423 115.065401,12.3220339 C115.065401,8.25423729 124.011603,5 134.855485,5 Z"></path>
                <path fill="#000000" id="形状-783" d="M138.667806,185.064682 C141.900059,182.147834 145.375327,181.016866 148.71137,182.982848 C149.700677,183.565862 150.629706,184.413616 151.526546,185.574083 L151.707783,185.814399 L152.009653,186.183358 C152.414054,186.660951 152.872481,187.139097 153.372088,187.58249 C155.508962,189.478932 157.545581,190.072955 159.388065,188.860109 C159.671625,188.673451 159.954393,188.443387 160.235756,188.16738 L160.41576,187.978227 L160.452359,187.911934 C160.639149,187.568176 160.902813,187.155779 161.243706,186.726971 L161.513863,186.403103 C163.879411,183.699619 167.004836,183.609503 169.937536,187.578551 L170.139815,187.860627 L170.204584,187.916112 C170.449556,188.110515 170.806057,188.361389 171.250547,188.624602 L171.600044,188.823636 C173.444462,189.833395 175.292132,190.182117 176.946297,189.550868 C178.794713,188.84549 180.421822,186.920764 181.695852,183.431991 C181.91889,182.821229 182.59958,182.505194 183.216215,182.726108 C183.83285,182.947023 184.151923,183.621229 183.928885,184.231992 C182.439052,188.311714 180.362946,190.767564 177.80002,191.745607 C175.373229,192.6717 172.850435,192.195559 170.451316,190.882118 C169.8107,190.531402 169.281209,190.179187 168.884881,189.87942 L168.474616,189.548329 L168.276559,189.326235 C166.175067,186.265239 164.776814,186.265239 163.308335,187.943501 C162.980653,188.317994 162.727973,188.697319 162.568904,188.980792 L162.467445,189.17385 L162.277491,189.453953 C161.775032,190.004013 161.249812,190.458638 160.702429,190.818962 C157.741881,192.767793 154.635445,191.861735 151.787448,189.334183 C151.197667,188.810762 150.66294,188.253034 150.190219,187.694755 L149.769884,187.177135 L149.61161,186.963991 C148.920937,186.071693 148.213896,185.426507 147.497177,185.004133 C145.284125,183.699947 142.815872,184.503199 140.267072,186.803286 C139.649353,187.360728 139.082218,187.96121 138.581008,188.561208 L138.37435,188.81303 L138.053315,189.226885 C138.009152,189.286318 137.969357,189.341123 137.933474,189.391517 C136.81712,190.7988 135.582779,191.805635 134.246838,192.428326 C131.203548,193.846823 128.017435,193.203067 125.003977,191.332024 C124.593857,191.077382 124.221664,190.822467 123.893987,190.580719 L123.29994,190.118758 C123.034546,189.900538 122.818061,189.704442 122.657074,189.543912 C118.162707,185.586967 115.113432,186.442879 112.674846,190.410808 C112.181579,191.213423 111.765275,192.08144 111.426821,192.950107 L111.21919,193.509979 L111.080567,193.928815 L111.036838,194.077731 L110.79523,194.529585 C108.996507,196.618349 106.917195,197.746719 104.640118,197.961202 C101.234217,198.282012 97.7450617,196.593531 94.3183492,193.629655 C93.2454634,192.701681 92.2557736,191.71049 91.3699383,190.718922 L90.8866163,190.166166 L90.5082009,189.712977 L90.2396788,189.373389 C89.8446612,188.854976 89.9487343,188.117543 90.4721327,187.726287 C90.9955311,187.335032 91.7400544,187.438114 92.135072,187.956527 L92.5238758,188.439326 L93.1483013,189.160305 C93.9705727,190.080722 94.8899698,191.001514 95.8802709,191.858058 C98.8621513,194.437184 101.812509,195.864929 104.415311,195.619765 C105.922066,195.47784 107.324785,194.772945 108.633841,193.395643 L108.827215,193.178502 L109.005087,192.656116 L109.211448,192.103307 C109.597529,191.1124 110.073085,190.120843 110.646475,189.187855 C113.790098,184.07273 118.511743,182.747394 124.285433,187.8334 L124.62022,188.135914 C124.67375,188.181776 124.732544,188.231308 124.796418,188.2841 C125.230975,188.643256 125.724779,189.003646 126.265219,189.339203 C128.663457,190.828259 131.062743,191.313036 133.235733,190.300191 C134.224138,189.839489 135.17063,189.067449 136.023676,187.995567 L136.38642,187.511563 L136.751448,187.06185 C137.319611,186.381703 137.961528,185.702041 138.667806,185.064682 Z"></path>
                <g transform="translate(144.000000, 115.000000)" id="右眼">
                    <path fill="#FFFFFF" id="形状-782" d="M46.1086352,33 C39.3153185,39.2181703 65.4016545,61.387299 65.4016545,61.387299 C73.5536345,70.0386663 75.9992285,87.0710457 75.9992285,87.0710457 C74.3688325,93.0188608 86.8685352,100.588807 86.8685352,100.588807 C86.8685352,100.588807 93.9335845,105.725557 89.5858618,108.699464 C75.7274958,118.972963 78.7165552,116.810121 78.7165552,116.810121 C55.8910112,110.591951 52.3584865,83.0157173 52.3584865,83.0157173 C51.5432885,74.36435 39.0435859,63.2797856 39.0435859,63.2797856 C25.7286852,54.3580631 26,43.5438539 26,43.5438539 L46.1086352,33 Z"></path>
                    <path fill="#000000" id="形状-782备份" d="M46.9798219,33.2054854 L53.674551,27 L25.0027142,42.2241939 L25,43.0235949 C25.0047703,43.6588737 25.0835488,44.5190715 25.2837253,45.5746929 C25.5833751,47.1548821 26.0993773,48.8431657 26.8791382,50.5952845 C29.0169628,55.3989658 32.7701487,59.9237274 38.4924279,63.8064989 L38.5296676,63.8517501 L39.6189181,64.8942866 C39.8656283,65.1353916 40.1236531,65.3914258 40.391362,65.661456 C41.9219315,67.2052977 43.4525706,68.8847161 44.8784976,70.6385992 C47.0535578,73.3139124 48.7810643,75.9146893 49.8927387,78.3290707 C50.5333114,79.7202935 50.9548497,81.0213684 51.1412581,82.2141674 L51.2394822,82.9877157 L51.360075,83.7500413 L51.4835325,84.4293464 C51.7182348,85.6650621 52.0328502,87.039121 52.4386472,88.5173836 C53.5978036,92.7400298 55.257293,96.9635349 57.5113717,100.914387 C62.3078912,109.321521 69.1186512,115.337271 78.2668031,117.859992 L78.7745162,118 L79.2448271,117.696361 L90.116887,109.50793 C91.6628416,108.438139 92.2587177,106.91848 91.8978881,105.253319 C91.6180501,103.961918 90.8023837,102.689573 89.6244293,101.426232 C89.1409465,100.907702 88.6265094,100.425161 88.1119835,99.9886676 L87.8914916,99.8043361 L87.5356016,99.5200333 C87.4867243,99.4823954 87.4433935,99.4497546 87.4061006,99.4222971 L86.6679706,98.9461458 L85.6723572,98.2664206 C84.421517,97.389352 83.1709415,96.42452 82.0080231,95.4046395 C79.6809138,93.3637627 78.015486,91.3710705 77.3064171,89.5999462 C76.9297737,88.6591598 76.8421057,87.8249556 77.0417799,87.0873093 L77.0715854,86.604963 L76.8443957,85.2365808 C76.6512932,84.1646654 76.4082701,82.9719218 76.1113547,81.6881819 C75.2625513,78.0183061 74.1505662,74.3470381 72.7406868,70.9107161 C70.9438969,66.5313703 68.7891083,62.8512224 66.2257907,60.0964478 L64.7429025,58.7762798 L63.6002939,57.736627 C63.4014094,57.5537567 63.1985072,57.3662251 62.9918985,57.1742365 C60.6308772,54.9802873 58.2701024,52.6569229 56.0695283,50.3099507 C54.3675826,48.4947793 52.8307862,46.7376087 51.4994728,45.06608 L50.6261371,43.9423027 C46.5914588,38.6135413 45.267693,34.7924938 46.9798219,33.2054854 Z M43.3722177,35 L43.3743737,35.3699936 C43.4766194,38.3089275 45.5749389,42.1309364 49.1743791,46.6881015 C50.5434357,48.4214313 52.1154195,50.2339058 53.851802,52.1013328 C56.0846085,54.5026487 58.4738958,56.8737898 60.8629376,59.1123908 L62.0700231,60.2317454 L63.4107138,61.4456694 L64.057164,62.0167786 C66.2960748,64.453817 68.3038602,67.9116514 69.9937374,72.0649517 C71.3442696,75.384226 72.415665,78.9511441 73.2341164,82.5194608 C73.4490837,83.4566838 73.6346301,84.3433032 73.7922912,85.1664562 L74.0962224,86.8811793 L74.1196386,87.0377833 L74.1825142,86.7689796 C73.8365909,88.0576218 73.9785322,89.4195882 74.5342316,90.819262 C75.4103976,93.0261145 77.2818289,95.2840657 79.8562958,97.5608066 C81.084739,98.6471856 82.3963543,99.6675952 83.7077058,100.594803 L84.3393818,101.0345 L85.1033584,101.54493 L85.4730756,101.779844 L85.9661413,102.191035 C86.412722,102.573064 86.8593912,102.995552 87.2729537,103.442812 C88.1805505,104.42436 88.7840285,105.373609 88.9525781,106.157956 C89.0904961,106.799758 88.9386526,107.30097 88.3508521,107.790236 L77.750574,115.83774 L78.2999227,116 C69.8444726,113.64875 63.5354012,108.029402 59.0461145,100.094797 C56.9078909,96.3155859 55.3263977,92.2568375 54.2212624,88.1972264 C53.911898,87.0608056 53.6585405,85.9902145 53.4557841,85.0033138 L53.1991749,83.6481995 L53.0924663,82.9772404 L53.0728288,82.8308969 C52.9245678,81.2170799 52.4012354,79.4544369 51.551536,77.5935505 C50.3490369,74.9600144 48.523761,72.1890036 46.2417481,69.3586044 C44.768152,67.5308911 43.1921482,65.7871995 41.6160752,64.1841302 L40.8190204,63.3859056 L39.499234,62.1261474 C34.0408218,58.378169 30.5898121,54.1828201 28.6391494,49.7629393 L28.3719859,49.1344458 C27.5265289,47.0662134 27.1265641,45.2705643 27.010466,43.9012939 L27,43.7647878 L43.3722177,35 Z"></path>
                    <path fill="#FFFFFF" id="形状-781" d="M51,23.1249326 C44.7718565,38.4373539 37.7313465,39.8045344 37.7313465,39.8045344 C34.2110915,49.1013617 19.3177049,43.0857676 19.3177049,43.0857676 C7.94457339,37.6170456 9.02772878,10 9.02772878,10 C13.3603503,20.1171355 51,23.1249326 51,23.1249326 Z"></path>
                    <path fill="#000000" id="形状-781备份" d="M10.3113399,9.76968438 L8.23940284,5 L8.01827192,10.7127216 C7.91416124,15.5692836 8.24054077,21.5204891 9.3699673,27.2709681 C11.0246717,35.6959009 14.0768257,41.6498555 19.021139,43.9936419 L19.4272405,44.1507388 L19.9635708,44.340191 C20.6385256,44.5703888 21.3891792,44.8000428 22.197706,45.0143085 C24.5486368,45.6373231 26.9067644,46.0086641 29.1337167,45.9998464 L29.7045429,45.9885832 C33.8470459,45.8452713 37.022953,44.3088116 38.6807324,41.04082 L38.8589753,40.6662841 L38.9731241,40.6273693 C39.8293597,40.3144317 40.9531684,39.7046168 42.2630849,38.6807927 C45.0632697,36.4921827 47.8300584,33.0234031 50.3868356,28.0072395 C51.0745811,26.6579457 51.7399098,25.2083931 52.3807293,23.6551937 L53,22.1542235 L50.5425816,21.954135 L48.6886374,21.7727681 L46.8082384,21.5684107 L44.792843,21.3286941 C39.8484526,20.7154115 34.9051213,19.9232831 30.2983729,18.9349028 L28.4377135,18.5201808 C18.4092218,16.1977444 11.7998343,13.1962598 10.3113399,9.76968438 Z M10,14 L10.3022925,14.2641835 C13.883017,17.2910474 20.4562513,19.6536354 29.3294952,21.5686495 C33.9943432,22.5754121 38.9848943,23.379835 43.9743903,24.002371 L46.0067252,24.2455271 L47.9038529,24.4529121 L49,24.5635539 L48.6973163,25.2506457 C48.3793054,25.9486473 48.0561088,26.6211839 47.7280084,27.2686925 C45.3317769,31.9976735 42.7916655,35.2010905 40.2848217,37.1720104 C38.8469047,38.3025233 37.7855697,38.7769288 37.2615408,38.8778409 L36.6145419,39.0024333 L36.3792405,39.6186756 C35.224474,42.6429491 32.5648591,43.9834513 28.6584449,43.9995822 C26.6760543,44.0077681 24.524067,43.6668852 22.368006,43.0921346 C21.8682759,42.9589194 21.3926258,42.8193978 20.9466896,42.6779356 L20.0928584,42.3926176 L19.5432306,42.1895392 C15.5565314,40.2858433 12.8214385,34.9188488 11.3043354,27.1488466 C10.6876307,23.9903296 10.3068689,20.6052949 10.1191828,17.1627925 L10.0757223,16.2906072 L10.0160471,14.6304478 L10,14 Z"></path>
                    <path fill="#000000" id="椭圆-533" d="M29,19 C32.92,19 36,22.08 36,26 C36,29.92 32.92,33 29,33 C25.08,33 22,29.92 22,26 C22,22.08 25.08,19 29,19 Z"></path>
                    <path fill="#000000" id="形状-780" d="M-1.09874787,-1.48435731 C-0.0741167728,-2.30692834 1.40981347,-2.12593283 2.2157031,-1.08009252 L2.39954828,-0.852601658 L2.91481539,-0.255818445 C3.54592256,0.454782142 4.31254268,1.25294567 5.21553012,2.11714278 C7.81889787,4.60867565 10.9794717,7.1084543 14.7044099,9.44600089 C26.7112058,16.9807419 41.5925278,21.1032522 59.4982143,20.0066728 C60.7994566,19.9269822 61.9176137,20.9390804 61.9956883,22.2672575 C62.0737628,23.5954347 61.0821895,24.736737 59.7809472,24.8164276 C40.8740187,25.974325 25.0390521,21.5876306 12.231975,13.5506813 C8.22600191,11.0367742 4.81454634,8.33856676 1.98661131,5.63211352 L1.53157212,5.19191607 L0.705025135,4.36572683 L-0.0104831877,3.61703854 L-0.615356663,2.95212334 C-0.706971773,2.84863368 -0.793993922,2.74889591 -0.876431525,2.65304069 L-1.31610988,2.12554534 C-1.38024295,2.045743 -1.4398083,1.97008456 -1.49481434,1.89870067 C-2.30070396,0.852860368 -2.12337896,-0.661786286 -1.09874787,-1.48435731 Z"></path>
                </g>
                <g transform="translate(56.000000, 115.000000)" id="左眼">
                    <path fill="#FFFFFF" id="形状-781" d="M49.9733473,10 C49.9733473,10 51.0565304,36.8279872 39.4123115,42.1404599 C39.4123115,42.1404599 24.5185431,47.9841799 20.9981979,38.9529763 C20.9981979,38.9529763 14.2283031,37.6248581 8,22.7499345 C8,22.7499345 45.3698189,19.8280745 49.9733473,10 Z"></path>
                    <path fill="#000000" id="形状-781备份-2" d="M50.7779294,5 L48.7063086,9.40592999 C47.1707787,12.6717001 40.922696,15.5348833 31.4730659,17.7835137 L29.6641111,18.1978783 C29.3564885,18.2657215 29.0458317,18.3329517 28.7321867,18.3995623 C24.1186026,19.3793756 19.1678948,20.1644682 14.2161204,20.7721467 L12.1977132,21.0096615 C11.872134,21.0463013 11.5521882,21.0814803 11.2382094,21.115217 L8.19859157,21.4149274 L6,21.5896568 L6.61900321,23.062402 C7.08089148,24.1613361 7.55417386,25.2076303 8.03813691,26.2025116 C10.6538287,31.5795814 13.4836015,35.2910903 16.3486759,37.6276243 L16.789105,37.9763331 C17.9443256,38.8633062 18.9430266,39.4106211 19.7260907,39.7065522 L19.868148,39.7566301 L20.0498751,40.1313126 C21.7832966,43.48561 25.1762702,44.981862 29.59848,44.9998438 C31.825803,45.0086571 34.1843232,44.6440808 36.5356454,44.0324158 C37.0747529,43.8921742 37.5881348,43.7452179 38.0705085,43.5958653 L39.2064897,43.2207749 L39.6431491,43.0600987 C44.7570028,40.737767 47.8878044,34.8899113 49.5893188,26.6183313 C50.2518273,23.3976759 50.6590622,19.9660842 50.8603382,16.482667 L50.9067717,15.6042405 L50.9707786,13.9324048 C50.9860704,13.3952824 50.9955646,12.8791586 51,12.3865605 L50.998869,10.9818704 L50.9742889,9.84493336 L50.7779294,5 Z M47.634569,13.3054367 L48,13 L47.9847729,13.6297499 C47.9625393,14.4007787 47.9276786,15.2177636 47.8777585,16.0721513 C47.6831954,19.4021128 47.290172,22.677287 46.6545786,25.7328947 C45.0949616,33.2307358 42.2924236,38.4074956 38.1312628,40.2778159 L37.4333621,40.5185807 C36.8111789,40.7245741 36.115806,40.9310934 35.3662564,41.1239202 C33.2103263,41.6785479 31.0584696,42.0074962 29.0761994,41.9995968 C25.1700224,41.9840307 22.510569,40.6904613 21.3558726,37.7720715 L21.1226321,37.1825774 L20.4822313,37.0588056 C19.9496503,36.9558723 18.8636746,36.4605783 17.3876887,35.2702033 C14.8097019,33.1910701 12.196557,29.801631 9.73229587,24.7919367 L9.27194797,23.8327669 L9,23.2417612 L11.0388427,23.0382976 L13.0082197,22.8190192 C13.3475117,22.7795551 13.6921153,22.7386195 14.0417008,22.6961935 C19.0379728,22.0898419 24.035307,21.3061283 28.7065334,20.3250555 C37.4877077,18.4807923 44.0220833,16.2074235 47.634569,13.3054367 Z"></path>
                    <path fill="#000000" id="椭圆-533" d="M32,19 C35.64,19 39,21.86 39,25.5 C39,29.14 35.64,32 32,32 C28.08,32 25,29.14 25,25.5 C25,21.86 28.08,19 32,19 Z"></path>
                    <path fill="#000000" id="形状-780" d="M62.0846658,-1.50345519 C63.1253068,-0.711349757 63.3054025,0.747198873 62.4869208,1.75430435 L62.0960928,2.21513285 L61.5937216,2.76871137 L60.979397,3.40900008 C60.8676573,3.52260517 60.7512358,3.63957152 60.630124,3.75977331 L59.8471003,4.51880266 C59.5672854,4.78408309 59.2686407,5.06129863 58.9510979,5.34944264 C56.0789764,7.95565688 52.6142168,10.5539307 48.5456504,12.9747302 C35.5384627,20.7140147 19.4560748,24.9382389 0.253725454,23.8232266 C-1.06784868,23.7464874 -2.07491535,22.6474556 -1.9956209,21.3684702 C-1.91632646,20.0894849 -0.780698086,19.1148717 0.540876053,19.1916108 C18.7263389,20.2475762 33.8401816,16.2777515 46.0345837,9.02207493 C49.8177241,6.77110414 53.0276819,4.36390989 55.6717272,1.96465601 C56.0385659,1.63178009 56.3832448,1.30907823 56.7058196,0.997877277 L57.6072871,0.100103995 L58.3897449,-0.735349645 L58.7184265,-1.11416317 C59.5369082,-2.12126865 61.0440248,-2.29556063 62.0846658,-1.50345519 Z"></path>
                </g>
                <path fill="#FFFFFF" id="形状结合" d="M87.25,72 C87.25,72 91.1870428,74.781057 95.9424861,78.8684885 C98.6210592,77.0645141 101.523892,75.6390265 104.532787,75 L114,82.83 C114,82.83 109.822978,84.5219414 104.905548,87.5342014 C108.276095,91.3091925 111.053476,95.3006513 112,98.9230769 L101,107 C101,107 99.2844101,101.5613 95.0962686,95.2175739 C93.1401969,97.2751443 91.4958416,99.5471887 90.4672131,102 L81,94.44 C81,94.44 83.5159879,90.5473093 87.5470197,86.2134471 C85.0945162,83.927592 82.2579265,81.8068639 79,80.0769231 L87.25,72 Z"></path>
                <path fill="#000000" id="形状结合备份-2" d="M86.9870486,71 L77,81.0363059 L78.4001177,81.7994372 L79.4771419,82.4108356 C81.254517,83.460637 82.943583,84.6635588 84.5446047,86.0061065 L85.5599573,86.8902805 L86.369809,86.0002374 C84.5498546,87.9635253 82.8938918,89.9831754 81.4320858,91.9490495 L80.7093321,92.9394538 L79.5965101,94.5582742 L79.014478,95.4648735 L90.5835566,104.765784 L91.1921405,103.304775 L91.5210139,102.567987 C92.2214309,101.09702 93.1767028,99.6420388 94.3658297,98.2089908 L94.6022606,97.9317134 L95.235071,98.9963992 C96.3867174,100.985571 97.3752475,102.971166 98.2084752,104.899581 C98.5139337,105.606532 98.7814009,106.266998 99.012067,106.873216 L99.4607246,108.117676 L100.043618,110 L112.886952,100.319991 L112.690161,99.5469213 L112.511308,98.9053771 C111.599057,95.890466 109.604543,92.582113 106.704463,89.0263278 L106.326583,88.5724205 L107.742122,87.7571778 C108.613348,87.2694434 109.484473,86.8056444 110.348795,86.3666015 L111.133763,85.9738231 L112.295124,85.4149516 C112.480087,85.3281507 112.660507,85.2445757 112.83602,85.1643069 L114.156868,84.5839611 L116,83.8323344 L104.525239,74.277782 L103.962418,74.3981218 L103.145355,74.5913341 C100.965538,75.1559238 98.7781445,76.1135646 96.590175,77.4209271 L95.7102577,77.9610802 L96.396556,78.5591036 C94.8600547,77.2056528 93.3240815,75.9160863 91.826605,74.7086293 L90.213381,73.4273804 L88.8974582,72.4122532 L87.8084715,71.5996153 L86.9870486,71 Z M81,80.3598026 L87.409303,74 L88.4954571,74.8197121 L89.4559053,75.5617017 C90.9267601,76.7083921 92.4459118,77.9407525 93.9743868,79.2399003 L95.8197746,80.8334963 L96.5897221,80.3193756 L97.4321885,79.7744487 C99.6758272,78.370428 101.895191,77.3612684 104.071867,76.7930746 L104.327162,76.7300733 L112,83.0396291 L111.815447,83.1241606 C111.425249,83.304979 111.015668,83.4993522 110.588821,83.7070647 L109.779718,84.1068209 C107.96275,85.0181245 106.12376,86.0286098 104.309482,87.1365099 L103.095216,87.8780086 L104.033835,88.9429617 L104.666228,89.6714804 C107.555293,93.0522668 109.570926,96.1647287 110.545823,98.8920345 L110.673771,99.2788994 L101.643357,106 L101.357594,105.270076 C101.175986,104.819442 100.977158,104.345671 100.760713,103.851041 C99.5267938,101.031231 97.9732479,98.0988106 96.0735079,95.1997685 L95.2415423,93.9301721 L94.1893846,95.0271632 L93.5360939,95.7281139 C92.2624145,97.1355363 91.1872126,98.5760557 90.3296587,100.049132 L89.8785003,100.862868 L82.3093497,94.8524002 L83.1023877,93.7561691 C83.2200138,93.5969779 83.3414679,93.4341359 83.466685,93.2678613 C84.8998534,91.3647715 86.5247266,89.4079955 88.3070556,87.5095092 L89.123434,86.6399261 L88.2525171,85.8241025 L87.3662345,85.0159192 C85.5752053,83.4264971 83.6733619,81.9997462 81.660169,80.7537683 L81,80.3598026 Z"></path>
            </g>
            <g transform="translate(390.000000, 272.000000)" id="脚">
                <path fill="#FFFFFF" id="椭圆-4" d="M56.5913793,532.012472 C86.8586302,531.47412 111.721015,548.432204 111.991258,569.697103 C112.531745,590.962002 87.9396034,608.458437 57.6723525,608.996789 C27.1348583,609.265965 2.27247365,592.577057 2.00223034,571.312158 C1.73198703,550.04726 26.0538851,532.281648 56.5913793,532.012472 Z"></path>
                <path fill="#000000" id="椭圆-4备份" d="M57.0479731,530.012866 C25.4119736,530.291954 -0.288811673,548.899351 0.00245142817,571.844918 C0.292069137,594.660862 26.3539671,612.277676 58.1948057,611.996685 C89.5513878,611.438404 115.053947,593.281984 114.999914,570.816493 L114.990826,570.164349 C114.81658,556.43732 105.327534,544.526337 90.9628574,537.314988 L89.5103021,536.609626 C89.2655556,536.494712 89.0194959,536.38113 88.7721436,536.268894 L87.2726816,535.611729 C78.6896909,531.9805 68.65987,529.935538 57.9909834,530.00155 L57.0479731,530.012866 Z M57.6096682,535.012244 C86.5931294,534.495325 110.22547,550.41264 110.975176,570.076493 L110.992062,570.749143 C111.494469,590.573229 88.0844096,607.471511 58.6345299,607.996846 C29.0002564,608.258722 5.25407832,592.179343 5.00204522,572.289786 C4.75089153,552.469629 27.6619172,535.63811 56.6618809,535.026424 L57.6096682,535.012244 Z"></path>
                <path fill="#FFFFFF" id="椭圆-4-拷贝" d="M234.594552,65.9789054 C211.228254,53.8642868 199.273404,30.9811182 207.696139,14.8282933 C216.118874,-1.32453164 241.930482,-4.82431037 265.29678,7.02109456 C288.663078,18.8664995 300.889629,41.7496681 292.195193,58.1717067 C283.772458,74.3245316 257.96085,77.8243104 234.594552,65.9789054 L234.594552,65.9789054 Z"></path>
                <path fill="#000000" id="椭圆-4-拷贝备份" d="M205.945714,14.1627437 C196.883583,31.7501995 209.463522,56.0083838 233.626443,68.6862633 C257.85026,81.1137651 284.896489,77.4035358 293.946576,59.8394538 C303.241174,42.073393 290.5525,17.7754482 266.246618,5.30595711 C242.04203,-7.11156762 214.995802,-3.40133835 205.945714,14.1627437 Z M264.677813,9.83525482 C287.02629,21.3134263 298.406587,43.1303926 290.48384,58.2913346 C282.776445,73.2662644 258.486831,76.6020803 236.219562,65.1656171 C214.002823,53.4956635 202.705396,31.6861119 210.420367,16.6963616 C218.120929,1.73460744 242.410543,-1.60120845 264.677813,9.83525482 Z"></path>
            </g>
            <g transform="translate(240.000000, 285.000000)" id="衣服">
                <path fill="url(#linearGradient-1)" id="形状-779" d="M151.344252,121.818579 L186.47774,127.226839 C235.664622,149.671116 267.555018,89.3690212 267.555018,89.3690212 C297.55361,45.0212921 354.037448,0.132737018 354.037448,0.132737018 C397.54892,-3.11221877 437.817302,54.2153335 437.817302,54.2153335 C440.519877,74.4963072 412.413088,117.762384 408.088966,124.522709 C403.764845,131.283033 318.90396,286.770498 318.90396,286.770498 L299.985929,346.261354 C303.22902,398.991886 270.257594,568 270.257594,568 C249.988274,548.259852 148.641676,562.59174 148.641676,562.59174 C139.993433,544.744484 116.210765,397.639821 116.210765,397.639821 C78.6449597,382.767107 0,302.995277 0,302.995277 L151.344252,121.818579 Z"></path>
                <path fill="#000000" id="形状-776" d="M350.266238,0.147681079 L350.910155,0.112941858 C375.149041,-1.19474399 396.827511,8.92918598 415.579575,26.5349475 C421.721836,32.3017353 427.099692,38.4749006 431.681117,44.6503966 C433.057482,46.5056569 434.277457,48.2492212 435.338273,49.8493513 L436.155278,51.1020489 L436.928218,52.3336825 L437.520951,53.3327224 L437.592758,53.7532862 C438.735784,60.4477811 437.434975,68.7468251 434.16454,78.3386897 C432.16151,84.2133776 429.468507,90.418641 426.255568,96.7939317 C423.713279,101.838482 420.991707,106.703615 418.269649,111.212783 L417.159373,113.031492 L416.122416,114.691542 L414.84658,116.675141 L414.575637,117.082176 C392.066306,148.428511 372.642499,180.85866 356.3517,212.512411 L355.292231,214.57873 L353.229551,218.647412 C352.554498,219.989199 351.891957,221.316396 351.241937,222.628549 L349.329456,226.519417 C349.016974,227.160221 348.707625,227.79715 348.40141,228.430149 L346.60175,232.180506 L344.877385,235.833784 C344.315153,237.035061 343.765481,238.219704 343.22838,239.387259 L341.654802,242.838207 L340.12964,246.246593 L338.776257,249.33552 L337.471267,252.389283 L336.642701,254.394262 L336.478234,254.624129 C329.14793,264.869326 322.285556,279.390991 315.973616,297.064657 C311.301966,310.14545 307.201557,324.175527 303.707496,338.207595 L302.820766,341.824223 C302.535446,343.006561 302.260404,344.165079 301.9957,345.297936 L301.232673,348.617683 L300.532061,351.772414 L299.866754,354.887759 L299.489124,356.720171 L299.160505,363.212399 L298.793481,369.863328 L298.40219,376.433572 C298.267749,378.610225 298.129315,380.773458 297.986938,382.923301 L297.548032,389.332682 L297.085778,395.661884 C297.006807,396.710079 296.926877,397.754941 296.845992,398.796472 L296.349292,405.005723 C296.264619,406.033947 296.179004,407.058848 296.092455,408.08043 L295.562,414.17011 L295.009424,420.180286 L294.435034,426.111128 L293.839137,431.962804 C293.636954,433.900187 293.431238,435.824404 293.22204,437.735483 L292.584049,443.429333 C292.475993,444.371749 292.36708,445.310886 292.257314,446.24675 L291.588559,451.822674 C291.362269,453.668239 291.132624,455.500735 290.899676,457.320192 L290.190974,462.739472 C289.711968,466.326283 289.219952,469.861048 288.715337,473.343993 L287.949016,478.529571 C287.69046,480.245161 287.428805,481.947823 287.164102,483.637587 L286.360901,488.668209 L285.548743,493.568178 L284.794653,497.961145 L284.033375,502.251419 C283.905927,502.957924 283.778202,503.660163 283.650211,504.358141 L282.879173,508.49494 L282.10231,512.529797 C281.972377,513.193794 281.842225,513.853557 281.711864,514.50909 L280.927284,518.391594 C280.796133,519.030237 280.664797,519.664663 280.533286,520.294879 L279.742214,524.025704 L278.947496,527.655784 C278.81477,528.252418 278.681914,528.844868 278.54894,529.433138 L277.749774,532.912662 L276.948324,536.292189 L276.145134,539.57202 C276.011154,540.110367 275.877124,540.644573 275.743056,541.174643 L274.938278,544.30549 L274.178519,547.168809 L273.478464,549.726773 L272.798456,552.135817 L272.139617,554.396557 C272.031637,554.761023 271.924586,555.119335 271.818487,555.471507 L271.193509,557.51095 L270.445696,559.854307 L269.529819,562.539386 L268.614541,565 L266.330337,564.02111 C255.369406,559.323828 242.462979,556.597269 228.007589,555.617753 C209.198964,554.343256 188.989915,556.046762 169.099079,559.670398 C164.330957,560.539035 159.908403,561.462579 155.909876,562.391686 L153.534543,562.956227 L151.111118,563.561721 L149.001289,564.123041 L146.834156,564.736347 L146.113728,562.60254 C143.362255,554.453058 140.736149,545.406893 138.232756,535.558874 L137.167379,531.289478 C135.404246,524.092918 133.703529,516.494161 132.064259,508.527767 L131.088063,503.704091 C130.92659,502.892884 130.76573,502.07807 130.605481,501.259683 C125.987822,477.677414 122.118382,452.422748 118.96628,427.169766 L118.428753,422.804655 L117.919184,418.550501 L117.437472,414.413128 L116.983514,410.398365 L116.354394,404.618859 L115.833695,399.605111 L115.417161,395.387414 L114.611463,395.272148 C112.761598,394.977964 110.882756,394.571074 108.976352,394.055237 L107.541403,393.64799 C95.8277319,390.170204 83.4351745,382.825224 70.8669713,372.767635 C64.6288812,367.77566 58.7487905,362.43256 53.3993937,357.088972 L52.4794749,356.16462 L50.7416192,354.387026 L49.1438011,352.712376 L47.6815178,351.139893 L46.587312,349.927037 C45.7253926,348.94403 45.8235982,347.44846 46.8066603,346.586588 C47.7897223,345.724716 49.2853754,345.822917 50.1472948,346.805924 L51.2825699,348.062041 L52.591383,349.467546 L54.1496032,351.100634 L55.8465554,352.83634 C56.1406644,353.13363 56.4403458,353.434786 56.7454955,353.739605 C61.9793024,358.967728 67.7333988,364.19634 73.8252603,369.071297 C85.9578748,378.78031 97.8613866,385.835436 108.889017,389.109537 C111.53132,389.894035 114.101184,390.452273 116.59251,390.775353 L117.831599,390.917255 L119.781529,391.110626 L120.264766,396.321315 L120.754793,401.185645 L121.06248,404.119054 L121.689098,409.875522 L122.141299,413.874708 L122.871529,420.101196 L123.66437,426.583411 C126.803948,451.736051 130.657498,476.887008 135.251798,500.349986 C135.887711,503.597575 136.533204,506.787945 137.188293,509.918801 L138.178126,514.570164 C141.667745,530.691706 145.42207,545.141307 149.44333,557.587069 L149.898844,558.982873 L151.541129,558.570686 L153.330167,558.135603 C157.788479,557.070402 162.798703,556.005966 168.250478,555.012783 C188.495636,551.324598 209.076051,549.589788 228.327692,550.894305 C242.083217,551.826397 254.540303,554.300123 265.399091,558.527036 L265.838353,558.701183 L266.37745,557.042737 L266.674803,556.097805 L267.287621,554.097846 L267.92365,551.950574 L268.581767,549.65537 C268.693231,549.260474 268.805569,548.859388 268.918757,548.4521 L269.607898,545.933837 L270.358324,543.105589 L271.155241,540.005154 C271.288016,539.480154 271.420762,538.95102 271.553467,538.417745 L272.349111,535.168354 C272.481606,534.618491 272.614037,534.064474 272.746393,533.506298 L273.539537,530.107275 L274.330333,526.608122 L275.118236,523.008539 L275.902701,519.308225 L276.683181,515.50688 C276.812899,514.864886 276.942428,514.218671 277.071757,513.568227 L277.84524,509.614771 L278.613377,505.559533 L279.375621,501.402212 L280.131428,497.142509 C280.38223,495.70551 280.631869,494.251398 280.880253,492.780121 L281.6797,487.957752 L282.462066,483.061472 L283.227061,478.091123 C283.983277,473.083686 284.713006,467.96491 285.414957,462.73408 L286.107599,457.465873 C286.22148,456.581604 286.334578,455.694216 286.446886,454.803706 L287.11121,449.423149 C287.220336,448.520136 287.328659,447.613994 287.436176,446.704719 L288.071535,441.211456 C288.175797,440.289639 288.279239,439.364682 288.381856,438.436584 L288.987603,432.830258 L289.573249,427.148361 L290.138507,421.390732 L290.683088,415.557214 L291.206707,409.647649 L291.709075,403.661878 C291.791016,402.65789 291.872059,401.65072 291.9522,400.640366 L292.422152,394.539989 C292.498655,393.516881 292.574242,392.49058 292.648908,391.461085 L293.085798,385.245747 L293.500288,378.95357 C293.567486,377.898462 293.63374,376.840145 293.699042,375.778617 L294.079391,369.370885 C294.140864,368.296498 294.201374,367.218892 294.260914,366.138066 L294.606476,359.614422 L294.770443,356.323558 L294.811364,355.985993 L295.231582,353.922884 L295.906256,350.76359 L296.614179,347.575904 L297.384879,344.222707 C297.518541,343.650659 297.654805,343.072172 297.793662,342.487475 L298.657879,338.90661 C298.807084,338.297991 298.958869,337.683619 299.113226,337.063724 C302.642324,322.890945 306.785021,308.716174 311.514863,295.472443 C317.746838,278.022683 324.527308,263.532267 331.866476,252.950145 L332.460487,252.104389 L333.350558,249.976879 L334.867729,246.45115 L336.293863,243.219602 L337.340272,240.888768 L338.926044,237.411056 C339.196646,236.822811 339.470402,236.23029 339.747309,235.63355 L341.446563,232.002933 C342.604599,229.549373 343.813022,227.030122 345.071756,224.448802 L346.997579,220.530726 C347.324835,219.870106 347.655233,219.20572 347.988772,218.537624 L350.027683,214.484994 L352.141914,210.346059 C368.533436,178.496598 388.075064,145.869734 410.685989,114.384061 L411.127858,113.711936 L411.645991,112.90792 L412.617095,111.371459 L413.665683,109.673235 C413.846424,109.377201 414.030034,109.074789 414.216332,108.76618 C416.87966,104.354301 419.543475,99.592414 422.027547,94.6633829 C425.148939,88.4697429 427.757545,82.4589498 429.683289,76.8109347 C432.595259,68.2704123 433.808096,60.9508578 433.037526,55.2803001 L432.989056,54.9665467 L432.343488,53.9292299 L431.884816,53.2159981 C431.403307,52.4746642 430.88256,51.6962067 430.322989,50.8846194 L429.152204,49.2184554 C428.744769,48.649132 428.320201,48.0662677 427.878623,47.4710458 C423.456384,41.5101223 418.261395,35.5468681 412.338814,29.986331 C394.76772,13.4893483 374.671006,3.95604734 352.383101,4.7848437 L351.812935,4.80920305 L350.986641,5.38779251 L349.150167,6.70453023 L347.777847,7.71497587 C347.539497,7.89221188 347.29638,8.07385949 347.048567,8.25991482 L344.877935,9.91128159 C344.141102,10.4790732 343.391171,11.0641904 342.628709,11.6666015 L340.304305,13.5256853 C337.943452,15.4365879 335.474958,17.5028525 332.9142,19.7236272 C318.267217,32.4259818 303.615641,47.5208568 289.941856,64.9520594 C267.052937,94.1306223 249.28391,126.833802 238.593114,162.954152 L237.920354,165.264346 L236.442797,170.422317 L233.536604,165.706643 L233.274272,165.304861 L232.438536,164.092976 C231.408481,162.639793 230.163609,161.014626 228.702879,159.260401 C224.515047,154.231138 219.449284,149.196113 213.498488,144.496469 C197.973302,132.235444 179.312732,124.428289 157.412187,123.199245 C156.106833,123.125989 155.108024,122.008464 155.181283,120.703182 C155.254543,119.3979 156.37213,118.399146 157.677484,118.472401 C180.612231,119.759484 200.182098,127.947069 216.432955,140.781193 C222.654968,145.695031 227.952245,150.960166 232.341284,156.231063 C233.111871,157.156478 233.827,158.049782 234.486908,158.905611 L234.75844,159.262765 L235.479563,156.941727 C246.225239,122.83633 263.191489,91.8041129 284.7403,63.9260368 L286.216619,62.0301475 C300.087157,44.3481253 314.947356,29.0383158 329.812147,16.1470712 C330.680082,15.3943695 331.537773,14.6589784 332.384653,13.9409259 L334.892288,11.8388116 L337.331637,9.84089498 L339.699287,7.94734287 L341.991822,6.15832207 C342.367462,5.86887214 342.73983,5.58378464 343.108855,5.30306303 L344.954558,3.91453638 L346.36576,2.87551508 L347.659112,1.94317441 L349.728903,0.504179378 L350.266238,0.147681079 Z"></path>
            </g>
            <g transform="translate(239.000000, 402.000000)" id="衣服线条">
                <path fill="#64BEF8" id="形状结合" d="M147.897835,-2.84217094e-14 C147.897835,-2.84217094e-14 154.665634,5.66843579 161.974858,4.31880822 C161.974858,4.31880822 163.235296,34.5555265 147.907362,70.6451112 L146.21724,70 C173.54388,80.3722197 196.628303,90.6161328 216.118403,100.458992 C221.991727,80.1663103 226.061535,58.3415068 227.451747,35.1189492 L240.931291,27 C240.931291,27 242.635605,59.9176832 229.067733,107.216684 C309.147981,150.448732 320,184.349107 320,184.349107 L309.156188,206 C300.791784,176.966866 261.577994,148.755757 222.68657,127.128017 C206.252457,173.552897 175.16973,229.88049 116.520401,282 L100,275.039225 C100,275.039225 174.343955,217.751535 209.705695,120.135632 C177.258088,103.175338 147.527572,91.3708686 139.265543,88.1839012 L139.277903,88.1847558 C118.924105,124.288751 80.4056697,162.244841 7.57993514,180 L7.57180375,179.975207 C7.56909162,179.967009 7.5657002,179.956812 7.56162824,179.944665 L7.52901998,179.848792 C7.15506774,178.762841 4.71490013,172.082185 -1.84741111e-13,168.123277 C-1.84741111e-13,168.123277 116.224535,114.178492 147.897835,-2.84217094e-14 Z"></path>
                <path stroke-width="2" stroke="#000000" id="形状结合备份-3" d="M147.897835,-2.84217094e-14 C147.897835,-2.84217094e-14 154.665634,5.66843579 161.974858,4.31880822 C161.974858,4.31880822 163.235296,34.5555265 147.907362,70.6451112 L146.21724,70 C173.54388,80.3722197 196.628303,90.6161328 216.118403,100.458992 C221.991727,80.1663103 226.061535,58.3415068 227.451747,35.1189492 L240.931291,27 C240.931291,27 242.635605,59.9176832 229.067733,107.216684 C309.147981,150.448732 320,184.349107 320,184.349107 L309.156188,206 C300.791784,176.966866 261.577994,148.755757 222.68657,127.128017 C206.252457,173.552897 175.16973,229.88049 116.520401,282 L100,275.039225 C100,275.039225 174.343955,217.751535 209.705695,120.135632 C177.258088,103.175338 147.527572,91.3708686 139.265543,88.1839012 L139.277903,88.1847558 C118.924105,124.288751 80.4056697,162.244841 7.57993514,180 L7.57180375,179.975207 C7.56909162,179.967009 7.5657002,179.956812 7.56162824,179.944665 L7.52901998,179.848792 C7.15506774,178.762841 4.71490013,172.082185 -1.84741111e-13,168.123277 C-1.84741111e-13,168.123277 116.224535,114.178492 147.897835,-2.84217094e-14 Z"></path>
            </g>
            <g transform="translate(0.000000, 196.000000)" id="头">
                <path fill="url(#linearGradient-2)" id="帽子" d="M57.3062719,61.2399939 C132.204206,-15.8133343 254.961109,-17.9762348 331.48138,56.3734679 C408.272042,130.723171 409.62399,253.46777 334.726056,330.521099 C259.828122,407.844789 137.07122,410.00769 60.2805581,335.657987 C-16.2397139,261.308285 -17.5916621,138.563685 57.3062719,61.2399939 Z"></path>
                <path fill="#000000" id="帽子备份" d="M56.0133432,59.9979274 C-19.8366448,138.30471 -18.4823882,262.630263 59.0374993,337.951426 C136.871793,413.311792 261.209738,411.026702 337.020665,332.760241 C412.911077,254.685672 411.471165,130.35718 333.72305,55.0802636 C256.204733,-20.2393735 131.865602,-18.0373966 56.0133432,59.9979274 Z M331.088401,58.8071865 C407.048912,132.353019 408.455776,253.827443 334.291374,330.126011 C260.202556,406.614258 138.713032,408.84699 62.6706815,335.221925 C-13.0591678,261.640333 -14.3824399,140.159772 59.7445136,63.6321498 C133.867229,-12.623528 255.357883,-14.7750509 331.088401,58.8071865 Z"></path>
                <path fill="#64BEF8" id="蓝色" d="M75.1840796,41 C75.1840796,41 139.716418,49.6007905 169,92.8735178 C169,92.8735178 162.763682,99.5928854 153.273632,109 C153.273632,109 129.412935,75.1343874 60,57.6640316 L75.1840796,41 Z"></path>
                <path fill="#000000" id="蓝色备份" d="M73.2733991,39.656387 L55.7333561,56.3871332 C54.3873502,57.6710344 54.9841122,59.9288694 56.790223,60.3857645 C77.3770565,65.5936531 95.3728935,72.5595293 110.928358,80.8473907 C123.439848,87.5134403 133.669167,94.6446327 141.779338,101.762063 C144.289997,103.965399 146.429859,106.023901 148.213061,107.895453 L149.24885,109.005098 L149.941468,109.776985 L150.80474,110.787799 L151.036498,111.075845 C151.909271,112.208182 153.582644,112.317136 154.595909,111.307601 L155.971298,109.933559 L158.64923,107.236602 L161.224945,104.614737 L163.692334,102.076278 L166.045288,99.6295374 L168.064248,97.5075989 L170.373453,95.0455221 C171.11584,94.2415493 171.208563,93.0354536 170.59773,92.1282122 C160.93847,77.7817521 147.01333,66.2442201 129.954287,57.193804 C117.984392,50.8433577 105.180084,46.0813784 92.3780384,42.6741023 C87.897466,41.4815939 83.7345953,40.5429646 79.99416,39.8299903 L78.4885675,39.5513854 L76.5024638,39.2132049 L75.2303097,39.0211002 C74.5149747,38.9252746 73.7947571,39.1590844 73.2733991,39.656387 Z M62,56.9483393 L75.6966308,44 L76.9743722,44.2128865 L78.3597381,44.4590241 C78.6025995,44.5035471 78.8513735,44.5498383 79.105954,44.5979248 C82.7550685,45.2871892 86.8262912,46.1968357 91.2132159,47.3538394 C103.746874,50.6594556 116.27826,55.2777021 127.954922,61.4164416 L129.445879,62.2111981 C144.269463,70.2229828 156.504498,80.1634575 165.347075,92.2234765 L166,93.1316758 L163.707761,95.532655 L161.845501,97.4600604 L159.440573,99.9249375 C159.030288,100.343227 158.615358,100.76514 158.19591,101.190503 L155.626048,103.782697 L153.402246,106 L152.69396,105.232341 C150.670202,103.073167 148.188067,100.675928 145.227144,98.1009889 C136.80775,90.7791424 126.228739,83.4709975 113.32884,76.6602868 L111.544501,75.7291999 C97.8124267,68.6474271 82.288397,62.5582093 64.8840592,57.7306649 L62,56.9483393 Z"></path>
                <path fill="#F8E3DE" id="椭圆-5" d="M159.242545,103.876178 C207.036605,54.9919946 284.803212,53.1014461 333.137318,100.095081 C381.741447,147.088715 382.281493,225.141361 334.757455,274.025544 C286.963395,323.179806 209.196788,324.800276 160.862682,277.806641 C112.258553,230.813007 111.718507,153.030439 159.242545,103.876178 Z"></path>
                <path fill="#000000" id="椭圆-5备份" d="M157.95433,101.628838 C109.403536,151.844661 110.084622,231.206807 159.623427,279.103802 C208.972551,327.08397 288.321038,325.380876 337.04847,275.267041 C385.596302,225.330123 384.913595,145.693713 335.379553,97.8013366 C286.119557,49.9078357 206.773994,51.6960189 157.95433,101.628838 Z M332.744793,101.527621 C380.486387,147.687183 381.144603,224.467162 334.322585,272.629097 C287.315924,320.973414 210.815343,322.61539 163.255204,276.374388 C115.512024,230.213293 114.855399,153.700944 161.68196,105.268221 C208.773909,57.1023529 285.278828,55.3781807 332.744793,101.527621 Z"></path>
                <g transform="translate(142.000000, 171.000000)" id="左眼">
                    <path fill="#000000" id="形状-11" d="M2.49970263,19.6511418 C22.1464133,0.538387448 45.0227202,-1.0658141e-14 45.0227202,-1.0658141e-14 C51.2127797,1.61516234 45.8301192,3.49951841 45.8301192,3.49951841 C27.2599407,9.42178033 0.884904496,23.9582414 0.884904496,23.9582414 C-1.80642573,24.4966289 2.49970263,19.6511418 2.49970263,19.6511418 L2.49970263,19.6511418 Z"></path>
                    <path fill="#000000" id="椭圆-1" d="M45.4428327,28.4203517 C51.3581484,21.4711828 62.9199019,21.2039071 71.2551195,27.6185245 C79.5903371,34.3004177 81.472483,45.5259982 75.5571673,52.475167 C69.6418516,59.4243359 58.0800981,59.9588874 49.7448805,53.2769942 C41.4096629,46.5951011 39.527517,35.6367963 45.4428327,28.4203517 Z"></path>
                    <path fill="#FFFFFF" id="椭圆-2" d="M55.997771,30.4003761 C57.8525633,28.4490205 61.2971775,28.4490205 64.211851,30.9579063 C66.8615543,33.466792 67.9214356,37.3695032 66.0666433,39.5996239 C64.211851,41.5509795 60.5022665,41.5509795 57.8525633,39.0420937 C54.9378897,36.533208 54.1429787,32.6304968 55.997771,30.4003761 Z"></path>
                    <path fill="#FFFFFF" id="椭圆-3-拷贝" d="M68.9488422,40.9488422 C69.7090647,39.9352121 70.9761023,39.6818046 71.7363248,40.4420271 C72.2431399,40.9488422 71.9897323,42.2158797 71.2295098,43.2295098 C70.2158797,43.9897323 68.9488422,44.2431399 68.4420271,43.7363248 C67.6818046,43.2295098 67.9352121,41.9624722 68.9488422,40.9488422 Z"></path>
                </g>
                <g transform="translate(248.000000, 63.000000)" id="右眼">
                    <path fill="#000000" id="形状-11" d="M22.988383,0.892025651 C22.988383,0.892025651 9.03128233,27.7506104 3.28424085,46.7415289 C3.28424085,46.7415289 1.91589765,52.1675057 3.71258579e-13,46.1989313 C3.71258579e-13,46.1989313 -0.273451487,23.1385302 18.6096848,2.51981867 C18.6096848,2.51981867 23.2620517,-1.82096271 22.988383,0.892025651 L22.988383,0.892025651 Z"></path>
                    <path fill="#000000" id="椭圆-1" d="M53.6818182,48.2936079 C60.7727273,56.3946142 60.7727273,68.0060567 53.6818182,74.2168282 C46.5909091,80.4275997 35.4090909,78.8073984 28.3181818,70.7063921 C21.2272727,62.3353522 21.2272727,50.9939433 28.3181818,44.7831718 C35.4090909,38.5724003 46.5909091,40.1926016 53.6818182,48.2936079 Z"></path>
                    <path fill="#FFFFFF" id="椭圆-2" d="M42.8900145,52.7216495 C45.3907381,55.420806 45.6685962,59.1996251 43.723589,61.0890347 C41.5007236,62.7085286 37.6107091,62.1686973 35.1099855,59.4695408 C32.6092619,56.5004686 32.3314038,52.7216495 34.276411,51.1021556 C36.4992764,49.212746 40.3892909,49.7525773 42.8900145,52.7216495 Z"></path>
                    <path fill="#FFFFFF" id="椭圆-3-拷贝" d="M41.7704902,68 C42.7841203,67 44.0511578,66.75 44.5579729,67.25 C45.3181954,68 45.0647879,69.25 44.0511578,70 C43.2909353,71 42.0238977,71.25 41.2636752,70.75 C40.7568601,70 41.0102677,68.75 41.7704902,68 Z"></path>
                </g>
                <path fill="#64BEF8" id="口罩" d="M174,291.768554 C174,291.768554 223.026502,252.516731 239.278381,206.22665 C239.278381,206.22665 244.966539,168.869743 281.533267,161.560783 C281.533267,161.560783 298.868605,163.184996 345.457325,115 C345.457325,115 413.444353,171.576765 349.79116,262.262011 C349.79116,262.262011 264.468794,362.421835 174,291.768554 L174,291.768554 Z"></path>
                <path fill="#000000" id="口罩备份" d="M344.334445,113.724424 L341.890972,116.233751 L339.487138,118.666721 L337.122805,121.02397 L334.797835,123.306135 C333.645168,124.428552 332.50721,125.523051 331.383885,126.589989 L329.156721,128.687224 L326.96844,130.711601 C326.245478,131.374321 325.528973,132.025004 324.818903,132.663756 L322.707973,134.544324 C322.359361,134.851822 322.012352,135.156363 321.666943,135.457962 L319.613666,137.232343 C319.274646,137.522222 318.937219,137.809185 318.601385,138.093245 L316.605451,139.76287 C316.275971,140.03537 315.948076,140.304993 315.621764,140.571752 L313.682864,142.138053 C312.722888,142.904128 311.777107,143.64467 310.845442,144.360037 L309.000911,145.75731 C308.392326,146.21195 307.789993,146.655506 307.193887,147.088085 L305.424233,148.352999 L303.691811,149.552686 C302.263601,150.525425 300.874031,151.430883 299.522743,152.270716 L297.91955,153.247122 C297.391262,153.562162 296.869076,153.866807 296.35297,154.161165 C292.007362,156.639652 288.413905,158.196043 285.532857,159.018452 C284.528091,159.305267 283.685223,159.480018 282.998559,159.566617 L282.578376,159.610405 L282.228455,159.624923 L282.262264,159.627756 C282.032528,159.606231 281.800881,159.618271 281.57462,159.663495 C266.425536,162.691469 255.169834,170.812778 247.308788,182.402892 C243.766114,187.626117 241.154003,193.20923 239.324851,198.792794 C238.790572,200.423703 238.355498,201.960016 238.009455,203.376038 L237.72047,204.622916 L237.457785,205.92344 L237.42609,206.10538 L237.492266,205.92567 C231.731262,222.334545 221.402413,239.025357 207.809871,255.437472 C200.164578,264.66867 191.967633,273.232087 183.771591,280.905415 C181.979585,282.583133 180.26817,284.142031 178.654197,285.575413 L176.765281,287.234794 L174.904667,288.831667 L172.890339,290.504673 C171.694009,291.462477 171.705038,293.285083 172.912873,294.228356 C199.714425,315.159345 227.758889,322.761736 256.274984,319.126816 C278.842632,316.250139 300.549221,306.534983 320.797436,292.152664 C329.338998,286.085588 337.042029,279.587665 343.784421,273.087081 C346.147363,270.808883 348.223014,268.691248 349.995858,266.787616 L351.259592,265.408942 L352.190841,264.354259 C371.889591,236.308219 380.525355,209.79444 379.975351,184.89676 C379.544463,165.391223 373.548545,147.990521 363.830726,132.910647 C360.296454,127.426251 356.508449,122.638476 352.715063,118.571838 L352.056345,117.873164 L350.788346,116.571289 C350.377238,116.158605 349.978069,115.767235 349.591982,115.397296 L348.742023,114.597546 L348.040904,113.962346 L347.562948,113.549709 C346.606992,112.754197 345.198858,112.830401 344.334445,113.724424 Z M345.905721,119 L346.618516,119.690087 C347.364837,120.424275 348.161619,121.24229 348.999732,122.143006 C352.606996,126.019716 356.219639,130.597183 359.592639,135.844316 C368.859084,150.25946 374.566502,166.864032 374.97651,185.470457 C375.493981,208.953626 367.479218,234.061816 349.197038,260.640951 L348.207804,262.066239 L346.711909,263.721367 C346.572627,263.872899 346.428256,264.029144 346.278825,264.189997 L344.735258,265.82421 C343.388379,267.227766 341.890855,268.73299 340.248571,270.320307 C333.670566,276.678145 326.149112,283.03865 317.815428,288.972768 C298.16174,302.967454 277.158635,312.391093 255.465304,315.163187 L254.14691,315.323304 C228.226082,318.306828 202.7562,311.518306 178.155453,293.095757 L178,292.975712 L178.771649,292.317646 C179.380378,291.793612 180.00633,291.248677 180.648431,290.683261 L182.622113,288.925992 C182.958777,288.623013 183.299211,288.31502 183.643279,288.002063 L185.750234,286.065191 C186.108305,285.732593 186.469743,285.395138 186.834413,285.052878 C195.165715,277.23355 203.496115,268.509105 211.276341,259.091661 C225.193539,242.245822 235.801728,225.061053 241.771629,208.014965 L241.878542,207.585157 L241.977475,207.024288 L242.160458,206.139122 C242.185744,206.023548 242.212729,205.902365 242.241461,205.775707 C242.582707,204.271391 243.04214,202.588301 243.635717,200.771886 C245.33431,195.573985 247.760383,190.375633 251.034632,185.536183 L251.62441,184.681406 C258.582645,174.792559 268.258029,167.839306 281.173842,164.979273 L282.041606,164.796481 L282.392362,164.791612 C283.416518,164.751818 284.818787,164.522256 286.618752,164.007172 C289.882663,163.07316 293.823095,161.362251 298.484956,158.696789 C299.285807,158.238895 300.099973,157.757681 300.92754,157.25279 L302.600572,156.211332 L304.309499,155.106101 C306.324249,153.779218 308.412605,152.320837 310.575687,150.726429 L312.448084,149.326374 C313.708583,148.370655 314.993587,147.370095 316.303303,146.323851 L318.286439,144.720114 C318.620059,144.447079 318.955231,144.171162 319.291957,143.89235 L321.33099,142.184632 L323.407484,140.406802 L325.521594,138.558224 L327.673479,136.638266 L329.863293,134.646293 C330.231431,134.30826 330.601156,133.967201 330.972472,133.623102 L333.219474,131.521917 C333.597163,131.165604 333.97645,130.806224 334.357336,130.443764 L336.661878,128.231942 L339.004975,125.945568 L341.386785,123.584009 L343.807463,121.146631 L345.905721,119 Z"></path>
                <path fill="#F9E2DC" fill-opacity="0.1" id="护目镜" d="M105.700607,223.2203 C105.700607,223.2203 181.886155,99.9165833 284.007208,40.4279479 C284.007208,40.4279479 301.297545,34.2086815 307.241098,47.7288259 C307.241098,47.7288259 335.878219,83.69241 331.555635,111.003102 C331.555635,111.003102 331.015312,173.736572 266.716871,162.650053 C266.716871,162.650053 244.293465,158.323607 244.563626,181.03745 C244.563626,181.03745 262.93461,257.020661 182.696639,270 C182.696639,270 136.769182,268.918388 111.103837,249.719783 C111.103837,249.719783 97.3256002,236.470042 105.700607,223.2203 Z"></path>
                <path fill="#000000" id="护目镜备份" d="M294.816393,37.0420521 C292.434824,36.9047253 290.02543,37.1104932 287.674631,37.5606636 C286.799226,37.7283008 286.006725,37.9142059 285.314257,38.1016209 L284.352723,38.3817813 L283.794148,38.5665483 L283.394557,38.7519222 C251.294655,57.4520126 219.78624,83.4696978 189.345008,114.945071 C166.58435,138.478947 145.727913,163.685471 127.219214,188.892273 L124.489001,192.634613 C124.041726,193.251718 123.598345,193.865463 123.158878,194.475771 L120.56921,198.095778 L118.074462,201.629657 L115.67561,205.073748 L113.373634,208.424392 C112.998098,208.974843 112.62664,209.521247 112.259279,210.063529 L110.104447,213.267144 L108.263122,216.043779 L106.612868,218.569131 L104.722791,221.517265 L104.074619,222.550372 C100.203658,228.674522 100.174215,235.284651 102.944348,241.805874 C104.685402,245.904521 107.195458,249.310871 109.580362,251.759403 L109.857164,252.03663 L110.080276,252.226113 C121.473166,260.748825 137.297123,266.425889 155.647148,269.853373 C162.119949,271.062387 168.485503,271.905102 174.502827,272.44582 L176.972781,272.65283 L178.462212,272.762043 L179.819702,272.849833 L181.596967,272.944372 L182.601443,272.984646 L183.105496,273 L183.545648,272.970441 C216.68008,267.610334 236.244697,251.410848 244.686197,227.837112 C249.603786,214.104253 250.226119,199.59113 248.35354,186.325197 C248.190022,185.166791 248.016803,184.105354 247.841196,183.149391 L247.584494,181.832075 L247.468286,181.297205 L247.469545,181.539494 C247.363255,172.602684 250.847205,167.939457 256.8874,166.070863 C259.810953,165.166433 262.986135,165.030669 265.85133,165.35163 L266.714777,165.467855 L266.829045,165.488278 C298.035847,170.86978 317.700972,160.112789 327.842094,138.99228 C330.732437,132.972678 332.605417,126.548203 333.669878,120.127795 C333.980234,118.255849 334.202275,116.493508 334.350313,114.870278 L334.464353,113.443048 L334.531213,112.271008 L334.551488,111.637071 L334.525293,111.826297 C335.372888,106.470812 335.068592,100.637511 333.747269,94.4038881 C331.814382,85.2850731 327.7925,75.6184865 322.304626,65.8092793 C319.552834,60.8906369 316.60689,56.2513061 313.659865,52.0279917 L312.456985,50.3281887 C312.262834,50.0577778 312.071978,49.793904 311.884608,49.5367058 L310.803773,48.0747312 L309.91621,46.910615 L309.877362,46.8642448 L310.013385,47.1553992 C307.117872,40.5684875 301.654972,37.4363803 294.816393,37.0420521 Z M295.205421,42.0340835 C300.409853,42.3341868 304.251183,44.5366084 306.361995,49.3384882 C306.416977,49.463567 306.482583,49.5835487 306.558028,49.6971336 L307.704482,51.2011614 L308.748911,52.6139753 L309.877141,54.1857194 C310.071644,54.4605413 310.269249,54.7417006 310.469762,55.029055 C313.337965,59.1394631 316.207251,63.658127 318.883002,68.4409135 C324.168317,77.8881767 328.024235,87.1559877 329.84835,95.7617477 C331.059202,101.474277 331.334209,106.746171 330.583139,111.491827 L330.553985,111.843176 L330.544404,112.242085 L330.498992,113.156707 L330.443198,113.966587 C330.310357,115.715072 330.080863,117.669403 329.731459,119.776896 C328.733545,125.795991 326.979959,131.81101 324.295665,137.401553 C315.150964,156.447095 297.824205,166.10514 269.396466,161.524108 L267.904132,161.27414 L267.330161,161.195053 C267.219861,161.181267 267.10264,161.167336 266.979098,161.153496 C263.514242,160.765356 259.714752,160.927816 256.065569,162.056741 C248.025586,164.544021 243.149619,171.070529 243.281469,182.156516 C243.283596,182.335343 243.305883,182.513359 243.347906,182.687182 L243.498761,183.375056 L243.609516,183.926856 C243.732652,184.557188 243.856103,185.247467 243.976826,185.993996 L244.213731,187.560962 C245.991773,200.157317 245.399652,213.966042 240.770235,226.894317 L240.436142,227.806614 C232.501085,248.999504 214.783951,263.595992 184.515104,268.819083 L183.423782,269 L182.209992,268.954203 L181.102877,268.897891 L179.181641,268.777473 L176.964028,268.609836 L175.330022,268.469579 C169.441875,267.940462 163.209662,267.115389 156.880143,265.933124 L155.274496,265.625974 C138.755372,262.390633 124.503342,257.246415 114.173891,249.85507 L113.313501,249.225371 L112.926117,248.822055 L112.270248,248.088611 C111.812945,247.55706 111.319464,246.942224 110.813418,246.255471 C109.519569,244.499591 108.40023,242.609617 107.562426,240.637301 C105.440919,235.642958 105.376607,230.82983 108.007974,226.286771 L108.60941,225.306077 L109.870286,223.320132 L111.377346,220.989447 L113.685944,217.483226 L114.315967,216.537535 C115.013812,215.492437 115.728201,214.430215 116.458969,213.351483 L118.700243,210.066367 L121.038798,206.685863 C121.83442,205.543538 122.64609,204.385928 123.473643,203.213645 L126.003785,199.653387 C127.722093,197.251352 129.503271,194.793074 131.345998,192.283452 C149.775333,167.184419 170.542799,142.085109 193.191316,118.66689 L195.253765,116.544448 C224.150114,86.9490689 253.969321,62.3561816 284.256424,44.3829634 L286.212624,43.2303392 L286.810138,43.0467658 L287.670363,42.8155885 C288.136218,42.6994985 288.653666,42.5842509 289.213615,42.477021 C291.210393,42.0946396 293.243865,41.9209742 295.205421,42.0340835 Z"></path>
            </g>
            <g transform="translate(168.000000, 566.000000)" id="左手">
                <path fill="#FFFFFF" id="形状-775" d="M4.72248779,63.1681972 L2,22.5611321 C2,22.5611321 3.63349267,11.1911539 12.8899511,9.02544378 C12.8899511,9.02544378 51.5492777,-11.2780887 67.3397069,17.1468568 C67.3397069,17.1468568 89.391858,58.0246356 70.0621947,68.5824725 L48.2822924,82.1181609 C48.2822924,82.1181609 30.313873,87.80315 23.7799023,79.4110232 L4.72248779,63.1681972 Z"></path>
                <path fill="#000000" id="形状-775备份" d="M20.757274,3.65518773 C18.8492094,4.31765081 17.0638176,5.01969218 15.4281694,5.72931674 L14.0507976,6.34443074 L12.9938791,6.84244585 L12.2882177,7.1920684 L12.600581,7.1115442 C8.25591482,8.14096473 5.03022689,10.9335666 2.79258301,14.8510441 C1.12551674,17.7696027 0.304261729,20.6514488 0.0185066929,22.6657169 L-2.48689958e-13,23.1602748 L2.76224635,64.8836093 L22.231622,81.689568 L22.0588804,81.4746507 C24.833736,85.0838943 29.2758976,86.7544465 34.8077373,86.9748286 C38.0775698,87.1050949 41.5313934,86.721968 44.9489519,86.0059337 C45.7234555,85.8436625 46.4539304,85.672543 47.1315983,85.4988489 L48.0871923,85.2428609 L48.9086374,85.0001612 L49.1920706,84.9093475 L71.0141262,71.1752217 C79.3100057,66.5907745 81.4672797,56.9416596 79.0955126,44.16402 C78.1741405,39.2002275 76.5968678,33.9424029 74.5492402,28.5820981 C73.3718389,25.4998827 72.1112886,22.5734156 70.8498914,19.8940943 L70.2107286,18.558613 L69.3863514,16.9065021 L69.1335291,16.4219329 C63.4532277,6.06674391 54.5644157,0.91004699 43.5408824,0.111020166 C36.2061414,-0.420629227 28.4362878,0.989102227 20.757274,3.65518773 Z M43.7219382,5.09752239 C53.0059295,5.76191618 60.3231603,9.81612842 65.2221279,18.1112091 L65.7003228,18.9515402 L66.0786795,19.6809475 L66.6390615,20.7982154 L67.2539677,22.0667703 C68.4748758,24.627161 69.6966364,27.4275597 70.8360528,30.3724646 C72.8007336,35.4503256 74.3075567,40.4095284 75.1758799,45.0281277 L75.3263387,45.8614819 C77.1375993,56.3338447 75.3502293,63.6276632 69.3109643,66.9257797 L47.7521271,80.315467 L47.1000959,80.4991389 C46.3262511,80.7072244 45.4560104,80.9161638 44.5120393,81.1114299 C41.4220503,81.7506127 38.3137274,82.0910358 35.4612297,81.9788385 C31.1614676,81.8097159 27.9811893,80.6289029 26.2008837,78.342669 L25.8682321,77.9950442 L7.62921778,62.4501215 L5,23.2427904 L5.07535902,22.8705878 L5.20899858,22.3040159 L5.39480163,21.6192988 C5.81328308,20.1694616 6.39921444,18.7212892 7.17102013,17.387234 C8.81649828,14.5430482 11.0511597,12.6329808 14.010496,11.9407019 L14.3069538,11.8713515 L14.9240567,11.5528931 L16.0126754,11.0340031 L16.7441728,10.702423 C18.5215565,9.90966083 20.5173336,9.11520408 22.6810597,8.37351618 C29.8539236,5.91478237 37.0726444,4.62167646 43.7219382,5.09752239 Z"></path>
                <path fill="url(#linearGradient-3)" id="形状-777" d="M74.8739601,27 C74.8739601,27 109.404919,59.6099291 122.45599,69.8510638 C122.45599,69.8510638 148.286234,139.652482 76.7772413,141 C76.7772413,141 24.8448548,132.64539 23.7572655,97.6099291 C23.7572655,97.6099291 10.9780919,93.5673759 12.0656811,80.0921986 C12.0656811,80.0921986 71.8830897,73.3546099 74.8739601,27 L74.8739601,27 Z"></path>
                <path fill="#000000" id="形状-777备份" d="M72.4726932,26.2189363 C71.3200787,44.2411804 61.332424,57.3494747 45.0237323,66.4202407 C34.3117335,72.3781701 22.7417805,75.6876635 13.1698925,77.0976456 L12.1658542,77.2340488 C11.0411747,77.36185 10.1644987,78.2682125 10.0742337,79.3964969 C9.52012713,86.3226538 12.1019685,91.7018645 16.6837762,95.5613878 L17.251164,96.0244998 C18.7621757,97.2191897 20.2500321,98.0936374 21.5473135,98.6948982 L21.7644446,98.7909212 L21.7771836,98.9721982 C22.9468838,114.336007 33.1723012,125.820375 49.3125294,133.962938 C55.2281905,136.947323 61.5459964,139.269831 67.8614353,141.015182 C69.7028989,141.524094 71.4360815,141.953024 73.0315198,142.30759 L74.4461326,142.610153 L75.7026483,142.856048 L76.3460478,142.969863 L76.7701319,143 C108.745133,142.392126 124.898646,128.257846 128.324273,105.3369 C129.70492,96.098956 128.879379,86.2820384 126.670486,76.7394627 C126.163713,74.5501657 125.620183,72.5485963 125.075376,70.7738735 L124.667466,69.4904422 L124.32943,68.5054737 C124.179198,68.0959055 123.918665,67.7358388 123.576616,67.4650569 L122.635286,66.7108638 L121.615935,65.8771069 L120.520055,64.9652442 L118.736002,63.4541907 L116.788144,61.7755996 L113.944887,59.2853682 L110.012047,55.7838034 L105.680095,51.8715263 L102.962203,49.3941486 L101.026416,47.6207149 L97.0701654,43.9761473 L93.0242914,40.2243528 L88.9167297,36.3929792 L81.6293048,29.5466254 L76.4664806,24.6567466 C75.0118679,23.2708908 72.6009239,24.2139255 72.4726932,26.2189363 Z M76.5397455,31.3232451 L76.5866714,31 L81.4292535,35.5870745 L85.5648371,39.4837692 L89.6671986,43.3288004 L95.698084,48.9393917 L99.5966598,52.5350918 L104.142454,56.6892712 L108.521857,60.6406506 L110.937075,62.7915255 L113.899021,65.3921339 L115.265897,66.574502 L117.169361,68.1963696 L118.892102,69.6316676 L119.847841,70.4093334 L120.173938,71.4231212 L120.299533,71.8301021 C120.810892,73.5039255 121.323524,75.400851 121.8025,77.4800735 C123.880622,86.5011566 124.655813,95.7639403 123.380397,104.339076 L123.264523,105.082056 C120.005195,125.045659 106.139592,137.149962 77.6554965,137.979899 L76.8035548,138 L76.0331201,137.855591 L74.8701179,137.617798 C73.121625,137.246757 71.1690724,136.773393 69.0642687,136.188889 C63.0523866,134.519389 57.0428627,132.299519 51.4529441,129.465822 C36.1513799,121.708999 26.9522854,110.979109 26.5170067,96.764453 C26.4893506,95.8613032 25.9544412,95.062208 25.1538272,94.6888942 L24.592776,94.4786251 L23.9453392,94.2048404 L23.3857683,93.9388689 C22.1833973,93.3425711 20.9784078,92.5760354 19.8609509,91.6301813 L19.4184067,91.2421989 C16.6730914,88.7482596 15.0267911,85.5531951 14.889248,81.4575375 L14.8856958,81.3199176 L14,81.4586794 C24.0601069,79.9696306 36.0974678,76.5097769 47.3483884,70.2218218 C63.3216689,61.2946171 73.8362361,48.5117805 76.5397455,31.3232451 Z"></path>
            </g>
            <g transform="translate(351.000000, 330.000000)" id="右手">
                <path fill="#FFFFFF" id="形状-775" d="M69.8222144,12.999529 C80.310656,15.1615894 83,33.8093597 83,33.8093597 L80.0417216,58.943311 C78.965984,81.1044294 32.9782016,78.9423691 32.9782016,78.9423691 C0.975008077,77.3208238 2.31968008,33.8093597 2.31968008,33.8093597 C0.168204877,24.8908608 9.58090887,18.4046798 9.58090887,18.4046798 L47.2317248,3 L69.8222144,12.999529 Z"></path>
                <path fill="#000000" id="形状-775备份-2" d="M71.1529242,11.3216746 L47.7775494,1 L9.08643597,16.7936266 L8.64116827,17.0339612 C7.53135538,17.7969476 5.95311215,19.14222 4.37353886,21.0095537 L3.94604547,21.5290664 C0.880391064,25.3612124 -0.647153712,29.6832941 0.259272016,34.3259535 L0.32751917,34.6351711 L0.32412469,35.3970609 C0.365911009,43.0440756 1.6100733,51.9759353 4.93356039,60.251894 C10.0200661,72.9180215 18.9863468,80.8961729 32.476937,81.8801036 L33.4491377,81.9378473 L34.2574139,81.9635454 C41.1695056,82.1398767 49.4873974,81.7004074 57.5123113,80.1204432 C72.8069882,77.1091907 82.4727486,70.708836 83.009872,59.6692775 L86,34.3715818 L85.8743418,33.5604828 L85.785325,33.064982 C85.6442199,32.3064693 85.4661769,31.4648656 85.2478476,30.5601712 C84.6231649,27.9716646 83.797201,25.3804091 82.736858,22.9421782 L82.4274717,22.2495212 C79.8114405,16.5476778 76.2464178,12.6158066 71.4552512,11.3920425 L71.1529242,11.3216746 Z M47.6898126,6 L69.292678,15.5858861 L69.767269,15.7383157 C73.1785972,16.4433025 76.0149658,19.6282634 78.1925359,24.6598948 C79.126489,26.8179459 79.8666271,29.1512437 80.4276527,31.4872858 C80.5259859,31.8967336 80.6150936,32.2911763 80.6953034,32.6679845 L80.9095666,33.7428764 L81,34.2539938 L78.0915169,59.0433224 C77.6832477,67.3598801 69.8387785,72.5795112 56.5303663,75.2124535 C49.4593363,76.6113893 42.0620854,77.0723541 35.7789137,76.9910093 L33.6332019,76.9384528 C21.7955681,76.3371233 14.0813378,69.5849443 9.55198737,58.2513287 C6.51158207,50.6434421 5.35062811,42.268379 5.31210854,35.1924335 L5.3187063,34.2728914 L5.3268213,33.9591112 L5.25341789,33.6540604 C4.43960104,30.2719897 5.62731435,26.9805278 8.22098644,23.8994302 C8.959286,23.022383 9.75479247,22.2355541 10.5480286,21.5561205 L10.9728077,21.2019114 L11.3465177,20.907494 L47.6898126,6 Z"></path>
                <path fill="url(#linearGradient-4)" id="形状-777" d="M65.8477539,2.38996336 C77.4900061,-4.37309386 86.6955078,5.36570854 86.6955078,5.36570854 C118.914764,-8.70145048 148.96802,33.7705489 148.96802,33.7705489 C178.750525,98.4253759 104.294261,106 104.294261,106 C89.4030083,98.6958982 45,82.1940386 45,82.1940386 C85.6125076,59.199644 65.8477539,2.38996336 65.8477539,2.38996336 L65.8477539,2.38996336 Z"></path>
                <path fill="#000000" id="形状-777备份-2" d="M65.0556462,0.756164002 C64.1548134,1.27984069 63.7100153,2.3213122 63.9296331,3.31819479 L64.0090301,3.59688967 L64.2904849,4.46196592 L64.7174961,5.88397529 L65.0394918,7.02897519 C65.6291726,9.18012801 66.1961529,11.5558812 66.7049139,14.1150468 C68.1036567,21.1509912 68.8484279,28.4358121 68.6610338,35.6360817 C68.1421239,55.5742348 60.7185816,71.3492519 44.2041847,80.7062782 C42.4482116,81.7012093 42.6553971,84.2940744 44.5470875,84.9976059 L51.9231799,87.7698133 L53.035305,88.1909371 C59.4768083,90.6322158 66.0636382,93.1640554 72.4136305,95.6534292 L75.8591166,97.0094195 L82.7513737,99.758305 L88.1135712,101.94019 L92.0060402,103.556983 L94.6827323,104.69062 L97.1436389,105.75381 L99.3817478,106.744063 L101.390047,107.658888 L102.597778,108.225636 L103.698177,108.757015 C104.097138,108.952845 104.543055,109.0328 104.985212,108.987786 L106.011558,108.861682 L107.335194,108.668504 C109.15741,108.38432 111.183074,108.000907 113.362258,107.503717 C119.590813,106.082646 125.822322,104.031028 131.659631,101.224153 C157.226315,88.9303889 167.067289,66.7908761 151.632486,33.2593139 L151.414321,32.881296 L150.815241,32.0654493 L150.355071,31.4601008 C149.509944,30.3595273 148.524956,29.1364197 147.408371,27.8211989 C144.222569,24.0686529 140.612031,20.3173436 136.639788,16.8105532 L135.834719,16.1072083 C120.255875,2.6398661 103.861031,-3.22386844 87.8297043,2.93462979 L87.6192864,3.01657629 L87.4939558,2.91186446 C86.7931374,2.3357849 85.9255535,1.70522361 84.9024146,1.07805212 C78.9287423,-2.58373519 72.0756312,-3.32472892 65.0556462,0.756164002 Z M82.8494803,5.35485423 C83.7017758,5.87290479 84.4611561,6.42794733 85.1133482,6.97904199 L85.323749,7.15971128 L85.6479441,7.45222605 L85.8392213,7.63952311 C86.530159,8.36486067 87.6059389,8.58217736 88.5280303,8.18268537 C103.342336,1.76445329 118.958662,7.24163557 134.144231,20.5350125 C137.949581,23.8661987 141.419691,27.4412681 144.479522,31.0151059 C145.335027,32.0143229 146.108018,32.9552746 146.793893,33.8222793 L147.715559,35.0108754 L148.118111,35.550951 L148.025131,35.3473162 C162.368287,66.2451235 153.689855,85.6049522 130.232517,96.7895262 C124.721326,99.4172889 118.793631,101.35246 112.862969,102.69418 C111.132515,103.085668 109.506553,103.401955 108.014834,103.650812 L106.716426,103.855805 L105.678722,104 L104.578325,103.47944 L102.599432,102.574874 L101.15185,101.930489 L97.9572136,100.545368 L94.3758678,99.0360185 L90.4229165,97.4075336 L84.9821672,95.21215 L79.7330345,93.1313273 L74.5427673,91.1016913 C69.7449867,89.2366534 64.8154094,87.3486734 59.914711,85.493137 L51,82.1397175 L51.2404394,81.9808091 C66.3802873,71.5389648 73.2863842,55.4209708 73.7997981,35.8599825 C73.9979843,28.3091189 73.2147752,20.7127862 71.7453951,13.3837143 C71.3005413,11.1648431 70.8127787,9.0764684 70.3030305,7.14149523 L69.819343,5.37297733 L69.4883146,4.23666294 L69.5202613,4.22130613 C74.2462286,2.14386183 78.7203244,2.84503024 82.8494803,5.35485423 Z"></path>
            </g>
            <path fill="#000000" d="M423.929329,167 L423.929329,124.771739 L445.291519,98.5217391 L484.613074,167 L509,167 L458.713781,81.0217391 L501.816254,27 L477.429329,27 L424.496466,93.1956522 L423.929329,93.1956522 L423.929329,27 L402,27 L402,167 L423.929329,167 Z M580.904836,169 C616.876755,169 642,141.06422 642,96.0249017 C642,50.9855832 616.876755,24 580.904836,24 C544.932917,24 520,50.9855832 520,96.0249017 C520,141.06422 544.932917,169 580.904836,169 Z M581.404467,150 C558.094293,150 543,129.019608 543,96.0231729 C543,63.026738 558.094293,43 581.404467,43 C604.71464,43 620,63.026738 620,96.0231729 C620,129.019608 604.71464,150 581.404467,150 Z"></path>
        </g>
    </g>
</svg>